<?xml version="1.0" encoding="utf-8" standalone="no"?>
<!DOCTYPE svg PUBLIC "-//W3C//DTD SVG 1.1//EN"
  "http://www.w3.org/Graphics/SVG/1.1/DTD/svg11.dtd">
<!-- Created with matplotlib (https://matplotlib.org/) -->
<svg height="345.6pt" version="1.1" viewBox="0 0 460.8 345.6" width="460.8pt" xmlns="http://www.w3.org/2000/svg" xmlns:xlink="http://www.w3.org/1999/xlink">
 <defs>
  <style type="text/css">
*{stroke-linecap:butt;stroke-linejoin:round;white-space:pre;}
  </style>
 </defs>
 <g id="figure_1">
  <g id="patch_1">
   <path d="M 0 345.6 
L 460.8 345.6 
L 460.8 0 
L 0 0 
z
" style="fill:#ffffff;"/>
  </g>
  <g id="axes_1">
   <g id="LineCollection_1">
    <path clip-path="url(#pf4aed67acb)" d="M 213.203431 213.221491 
L 246.894668 249.841587 
" style="fill:none;stroke:#000000;"/>
    <path clip-path="url(#pf4aed67acb)" d="M 213.203431 213.221491 
L 179.512195 213.221491 
" style="fill:none;stroke:#000000;"/>
    <path clip-path="url(#pf4aed67acb)" d="M 246.894668 249.841587 
L 262.757625 171.279442 
" style="fill:none;stroke:#000000;"/>
    <path clip-path="url(#pf4aed67acb)" d="M 179.512195 213.221491 
L 112.129723 213.221491 
" style="fill:none;stroke:#000000;"/>
    <path clip-path="url(#pf4aed67acb)" d="M 179.512195 213.221491 
L 113.112384 230.010981 
" style="fill:none;stroke:#000000;"/>
    <path clip-path="url(#pf4aed67acb)" d="M 262.757625 171.279442 
L 223.591563 230.010981 
" style="fill:none;stroke:#000000;"/>
    <path clip-path="url(#pf4aed67acb)" d="M 262.757625 171.279442 
L 313.294479 171.279442 
" style="fill:none;stroke:#000000;"/>
    <path clip-path="url(#pf4aed67acb)" d="M 262.757625 171.279442 
L 313.294479 148.471078 
" style="fill:none;stroke:#000000;"/>
    <path clip-path="url(#pf4aed67acb)" d="M 112.129723 213.221491 
L 131.923324 168.922578 
" style="fill:none;stroke:#000000;"/>
    <path clip-path="url(#pf4aed67acb)" d="M 112.129723 213.221491 
L 127.852299 167.858188 
" style="fill:none;stroke:#000000;"/>
    <path clip-path="url(#pf4aed67acb)" d="M 113.112384 230.010981 
L 92.476501 167.858188 
" style="fill:none;stroke:#000000;"/>
    <path clip-path="url(#pf4aed67acb)" d="M 113.112384 230.010981 
L 92.476501 259.598498 
" style="fill:none;stroke:#000000;"/>
    <path clip-path="url(#pf4aed67acb)" d="M 223.591563 230.010981 
L 246.894668 213.221491 
" style="fill:none;stroke:#000000;"/>
    <path clip-path="url(#pf4aed67acb)" d="M 313.294479 171.279442 
L 288.166432 232.735314 
" style="fill:none;stroke:#000000;"/>
    <path clip-path="url(#pf4aed67acb)" d="M 313.294479 171.279442 
L 321.857669 223.358541 
" style="fill:none;stroke:#000000;"/>
    <path clip-path="url(#pf4aed67acb)" d="M 313.294479 148.471078 
L 305.01205 177.741812 
" style="fill:none;stroke:#000000;"/>
    <path clip-path="url(#pf4aed67acb)" d="M 131.923324 168.922578 
L 146.382479 210.661885 
" style="fill:none;stroke:#000000;"/>
    <path clip-path="url(#pf4aed67acb)" d="M 127.852299 167.858188 
L 112.129723 109.063292 
" style="fill:none;stroke:#000000;"/>
    <path clip-path="url(#pf4aed67acb)" d="M 92.476501 167.858188 
L 92.476501 137.447035 
" style="fill:none;stroke:#000000;"/>
    <path clip-path="url(#pf4aed67acb)" d="M 92.476501 259.598498 
L 21.023004 279.999313 
" style="fill:none;stroke:#000000;"/>
    <path clip-path="url(#pf4aed67acb)" d="M 92.476501 259.598498 
L 145.820959 213.221491 
" style="fill:none;stroke:#000000;"/>
    <path clip-path="url(#pf4aed67acb)" d="M 246.894668 213.221491 
L 180.073716 210.661885 
" style="fill:none;stroke:#000000;"/>
    <path clip-path="url(#pf4aed67acb)" d="M 246.894668 213.221491 
L 271.320814 208.152965 
" style="fill:none;stroke:#000000;"/>
    <path clip-path="url(#pf4aed67acb)" d="M 288.166432 232.735314 
L 372.394523 232.735314 
" style="fill:none;stroke:#000000;"/>
    <path clip-path="url(#pf4aed67acb)" d="M 321.857669 223.358541 
L 372.394523 268.975271 
" style="fill:none;stroke:#000000;"/>
    <path clip-path="url(#pf4aed67acb)" d="M 321.857669 223.358541 
L 355.548905 192.947389 
" style="fill:none;stroke:#000000;"/>
    <path clip-path="url(#pf4aed67acb)" d="M 305.01205 177.741812 
L 389.240141 162.536236 
" style="fill:none;stroke:#000000;"/>
    <path clip-path="url(#pf4aed67acb)" d="M 305.01205 177.741812 
L 321.857669 253.769694 
" style="fill:none;stroke:#000000;"/>
    <path clip-path="url(#pf4aed67acb)" d="M 146.382479 210.661885 
L 230.61057 226.754453 
" style="fill:none;stroke:#000000;"/>
    <path clip-path="url(#pf4aed67acb)" d="M 112.129723 109.063292 
L 124.062035 46.213577 
" style="fill:none;stroke:#000000;"/>
    <path clip-path="url(#pf4aed67acb)" d="M 112.129723 109.063292 
L 92.476501 46.213577 
" style="fill:none;stroke:#000000;"/>
    <path clip-path="url(#pf4aed67acb)" d="M 112.129723 109.063292 
L 149.330463 46.213577 
" style="fill:none;stroke:#000000;"/>
    <path clip-path="url(#pf4aed67acb)" d="M 92.476501 137.447035 
L 72.26176 177.361673 
" style="fill:none;stroke:#000000;"/>
    <path clip-path="url(#pf4aed67acb)" d="M 92.476501 137.447035 
L 21.023004 126.042853 
" style="fill:none;stroke:#000000;"/>
    <path clip-path="url(#pf4aed67acb)" d="M 92.476501 137.447035 
L 92.476501 76.624729 
" style="fill:none;stroke:#000000;"/>
    <path clip-path="url(#pf4aed67acb)" d="M 21.023004 279.999313 
L 21.023004 228.680493 
" style="fill:none;stroke:#000000;"/>
    <path clip-path="url(#pf4aed67acb)" d="M 271.320814 208.152965 
L 288.026052 205.491989 
" style="fill:none;stroke:#000000;"/>
    <path clip-path="url(#pf4aed67acb)" d="M 372.394523 232.735314 
L 372.394523 299.386423 
" style="fill:none;stroke:#000000;"/>
    <path clip-path="url(#pf4aed67acb)" d="M 372.394523 232.735314 
L 406.085759 268.975271 
" style="fill:none;stroke:#000000;"/>
    <path clip-path="url(#pf4aed67acb)" d="M 372.394523 268.975271 
L 338.703287 329.797576 
" style="fill:none;stroke:#000000;"/>
    <path clip-path="url(#pf4aed67acb)" d="M 372.394523 268.975271 
L 305.01205 299.386423 
" style="fill:none;stroke:#000000;"/>
    <path clip-path="url(#pf4aed67acb)" d="M 389.240141 162.536236 
L 439.776996 147.33066 
" style="fill:none;stroke:#000000;"/>
    <path clip-path="url(#pf4aed67acb)" d="M 389.240141 162.536236 
L 439.776996 177.741812 
" style="fill:none;stroke:#000000;"/>
    <path clip-path="url(#pf4aed67acb)" d="M 389.240141 162.536236 
L 338.703287 147.33066 
" style="fill:none;stroke:#000000;"/>
    <path clip-path="url(#pf4aed67acb)" d="M 321.857669 253.769694 
L 342.07241 234.129158 
" style="fill:none;stroke:#000000;"/>
    <path clip-path="url(#pf4aed67acb)" d="M 321.857669 253.769694 
L 342.07241 287.348675 
" style="fill:none;stroke:#000000;"/>
    <path clip-path="url(#pf4aed67acb)" d="M 124.062035 46.213577 
L 92.476501 15.802424 
" style="fill:none;stroke:#000000;"/>
    <path clip-path="url(#pf4aed67acb)" d="M 124.062035 46.213577 
L 195.234772 72.126413 
" style="fill:none;stroke:#000000;"/>
    <path clip-path="url(#pf4aed67acb)" d="M 124.062035 46.213577 
L 124.062035 15.802424 
" style="fill:none;stroke:#000000;"/>
   </g>
   <g id="PathCollection_1">
    <defs>
     <path d="M 0 3.535534 
C 0.937635 3.535534 1.836992 3.163008 2.5 2.5 
C 3.163008 1.836992 3.535534 0.937635 3.535534 0 
C 3.535534 -0.937635 3.163008 -1.836992 2.5 -2.5 
C 1.836992 -3.163008 0.937635 -3.535534 0 -3.535534 
C -0.937635 -3.535534 -1.836992 -3.163008 -2.5 -2.5 
C -3.163008 -1.836992 -3.535534 -0.937635 -3.535534 0 
C -3.535534 0.937635 -3.163008 1.836992 -2.5 2.5 
C -1.836992 3.163008 -0.937635 3.535534 0 3.535534 
z
" id="C0_0_e02f3a4a99"/>
    </defs>
    <g clip-path="url(#pf4aed67acb)">
     <use style="fill:#330099;stroke:#330099;" x="213.203431" xlink:href="#C0_0_e02f3a4a99" y="213.221491"/>
    </g>
    <g clip-path="url(#pf4aed67acb)">
     <use style="fill:#d3d3d3;stroke:#d3d3d3;" x="246.894668" xlink:href="#C0_0_e02f3a4a99" y="249.841587"/>
    </g>
    <g clip-path="url(#pf4aed67acb)">
     <use style="fill:#d3d3d3;stroke:#d3d3d3;" x="179.512195" xlink:href="#C0_0_e02f3a4a99" y="213.221491"/>
    </g>
    <g clip-path="url(#pf4aed67acb)">
     <use style="fill:#b5a3da;stroke:#b5a3da;" x="262.757625" xlink:href="#C0_0_e02f3a4a99" y="171.279442"/>
    </g>
    <g clip-path="url(#pf4aed67acb)">
     <use style="fill:#b5a3da;stroke:#b5a3da;" x="112.129723" xlink:href="#C0_0_e02f3a4a99" y="213.221491"/>
    </g>
    <g clip-path="url(#pf4aed67acb)">
     <use style="fill:#b5a3da;stroke:#b5a3da;" x="113.112384" xlink:href="#C0_0_e02f3a4a99" y="230.010981"/>
    </g>
    <g clip-path="url(#pf4aed67acb)">
     <use style="fill:#b5a3da;stroke:#b5a3da;" x="223.591563" xlink:href="#C0_0_e02f3a4a99" y="230.010981"/>
    </g>
    <g clip-path="url(#pf4aed67acb)">
     <use style="fill:#b5a3da;stroke:#b5a3da;" x="313.294479" xlink:href="#C0_0_e02f3a4a99" y="171.279442"/>
    </g>
    <g clip-path="url(#pf4aed67acb)">
     <use style="fill:#b5a3da;stroke:#b5a3da;" x="313.294479" xlink:href="#C0_0_e02f3a4a99" y="148.471078"/>
    </g>
    <g clip-path="url(#pf4aed67acb)">
     <use style="fill:#b5a3da;stroke:#b5a3da;" x="131.923324" xlink:href="#C0_0_e02f3a4a99" y="168.922578"/>
    </g>
    <g clip-path="url(#pf4aed67acb)">
     <use style="fill:#b5a3da;stroke:#b5a3da;" x="127.852299" xlink:href="#C0_0_e02f3a4a99" y="167.858188"/>
    </g>
    <g clip-path="url(#pf4aed67acb)">
     <use style="fill:#b5a3da;stroke:#b5a3da;" x="92.476501" xlink:href="#C0_0_e02f3a4a99" y="167.858188"/>
    </g>
    <g clip-path="url(#pf4aed67acb)">
     <use style="fill:#b5a3da;stroke:#b5a3da;" x="92.476501" xlink:href="#C0_0_e02f3a4a99" y="259.598498"/>
    </g>
    <g clip-path="url(#pf4aed67acb)">
     <use style="fill:#b5a3da;stroke:#b5a3da;" x="246.894668" xlink:href="#C0_0_e02f3a4a99" y="213.221491"/>
    </g>
    <g clip-path="url(#pf4aed67acb)">
     <use style="fill:#b5a3da;stroke:#b5a3da;" x="288.166432" xlink:href="#C0_0_e02f3a4a99" y="232.735314"/>
    </g>
    <g clip-path="url(#pf4aed67acb)">
     <use style="fill:#b5a3da;stroke:#b5a3da;" x="321.857669" xlink:href="#C0_0_e02f3a4a99" y="223.358541"/>
    </g>
    <g clip-path="url(#pf4aed67acb)">
     <use style="fill:#b5a3da;stroke:#b5a3da;" x="305.01205" xlink:href="#C0_0_e02f3a4a99" y="177.741812"/>
    </g>
    <g clip-path="url(#pf4aed67acb)">
     <use style="fill:#b5a3da;stroke:#b5a3da;" x="146.382479" xlink:href="#C0_0_e02f3a4a99" y="210.661885"/>
    </g>
    <g clip-path="url(#pf4aed67acb)">
     <use style="fill:#b5a3da;stroke:#b5a3da;" x="112.129723" xlink:href="#C0_0_e02f3a4a99" y="109.063292"/>
    </g>
    <g clip-path="url(#pf4aed67acb)">
     <use style="fill:#b5a3da;stroke:#b5a3da;" x="92.476501" xlink:href="#C0_0_e02f3a4a99" y="137.447035"/>
    </g>
    <g clip-path="url(#pf4aed67acb)">
     <use style="fill:#b5a3da;stroke:#b5a3da;" x="21.023004" xlink:href="#C0_0_e02f3a4a99" y="279.999313"/>
    </g>
    <g clip-path="url(#pf4aed67acb)">
     <use style="fill:#b5a3da;stroke:#b5a3da;" x="145.820959" xlink:href="#C0_0_e02f3a4a99" y="213.221491"/>
    </g>
    <g clip-path="url(#pf4aed67acb)">
     <use style="fill:#b5a3da;stroke:#b5a3da;" x="180.073716" xlink:href="#C0_0_e02f3a4a99" y="210.661885"/>
    </g>
    <g clip-path="url(#pf4aed67acb)">
     <use style="fill:#b5a3da;stroke:#b5a3da;" x="271.320814" xlink:href="#C0_0_e02f3a4a99" y="208.152965"/>
    </g>
    <g clip-path="url(#pf4aed67acb)">
     <use style="fill:#b5a3da;stroke:#b5a3da;" x="372.394523" xlink:href="#C0_0_e02f3a4a99" y="232.735314"/>
    </g>
    <g clip-path="url(#pf4aed67acb)">
     <use style="fill:#b5a3da;stroke:#b5a3da;" x="372.394523" xlink:href="#C0_0_e02f3a4a99" y="268.975271"/>
    </g>
    <g clip-path="url(#pf4aed67acb)">
     <use style="fill:#b5a3da;stroke:#b5a3da;" x="389.240141" xlink:href="#C0_0_e02f3a4a99" y="162.536236"/>
    </g>
    <g clip-path="url(#pf4aed67acb)">
     <use style="fill:#b5a3da;stroke:#b5a3da;" x="321.857669" xlink:href="#C0_0_e02f3a4a99" y="253.769694"/>
    </g>
    <g clip-path="url(#pf4aed67acb)">
     <use style="fill:#b5a3da;stroke:#b5a3da;" x="230.61057" xlink:href="#C0_0_e02f3a4a99" y="226.754453"/>
    </g>
    <g clip-path="url(#pf4aed67acb)">
     <use style="fill:#b5a3da;stroke:#b5a3da;" x="124.062035" xlink:href="#C0_0_e02f3a4a99" y="46.213577"/>
    </g>
    <g clip-path="url(#pf4aed67acb)">
     <use style="fill:#b5a3da;stroke:#b5a3da;" x="92.476501" xlink:href="#C0_0_e02f3a4a99" y="46.213577"/>
    </g>
    <g clip-path="url(#pf4aed67acb)">
     <use style="fill:#b5a3da;stroke:#b5a3da;" x="149.330463" xlink:href="#C0_0_e02f3a4a99" y="46.213577"/>
    </g>
    <g clip-path="url(#pf4aed67acb)">
     <use style="fill:#b5a3da;stroke:#b5a3da;" x="72.26176" xlink:href="#C0_0_e02f3a4a99" y="177.361673"/>
    </g>
    <g clip-path="url(#pf4aed67acb)">
     <use style="fill:#b5a3da;stroke:#b5a3da;" x="21.023004" xlink:href="#C0_0_e02f3a4a99" y="126.042853"/>
    </g>
    <g clip-path="url(#pf4aed67acb)">
     <use style="fill:#b5a3da;stroke:#b5a3da;" x="92.476501" xlink:href="#C0_0_e02f3a4a99" y="76.624729"/>
    </g>
    <g clip-path="url(#pf4aed67acb)">
     <use style="fill:#b5a3da;stroke:#b5a3da;" x="21.023004" xlink:href="#C0_0_e02f3a4a99" y="228.680493"/>
    </g>
    <g clip-path="url(#pf4aed67acb)">
     <use style="fill:#b5a3da;stroke:#b5a3da;" x="288.026052" xlink:href="#C0_0_e02f3a4a99" y="205.491989"/>
    </g>
    <g clip-path="url(#pf4aed67acb)">
     <use style="fill:#b5a3da;stroke:#b5a3da;" x="372.394523" xlink:href="#C0_0_e02f3a4a99" y="299.386423"/>
    </g>
    <g clip-path="url(#pf4aed67acb)">
     <use style="fill:#b5a3da;stroke:#b5a3da;" x="406.085759" xlink:href="#C0_0_e02f3a4a99" y="268.975271"/>
    </g>
    <g clip-path="url(#pf4aed67acb)">
     <use style="fill:#b5a3da;stroke:#b5a3da;" x="355.548905" xlink:href="#C0_0_e02f3a4a99" y="192.947389"/>
    </g>
    <g clip-path="url(#pf4aed67acb)">
     <use style="fill:#b5a3da;stroke:#b5a3da;" x="338.703287" xlink:href="#C0_0_e02f3a4a99" y="329.797576"/>
    </g>
    <g clip-path="url(#pf4aed67acb)">
     <use style="fill:#b5a3da;stroke:#b5a3da;" x="305.01205" xlink:href="#C0_0_e02f3a4a99" y="299.386423"/>
    </g>
    <g clip-path="url(#pf4aed67acb)">
     <use style="fill:#b5a3da;stroke:#b5a3da;" x="439.776996" xlink:href="#C0_0_e02f3a4a99" y="147.33066"/>
    </g>
    <g clip-path="url(#pf4aed67acb)">
     <use style="fill:#b5a3da;stroke:#b5a3da;" x="439.776996" xlink:href="#C0_0_e02f3a4a99" y="177.741812"/>
    </g>
    <g clip-path="url(#pf4aed67acb)">
     <use style="fill:#b5a3da;stroke:#b5a3da;" x="338.703287" xlink:href="#C0_0_e02f3a4a99" y="147.33066"/>
    </g>
    <g clip-path="url(#pf4aed67acb)">
     <use style="fill:#b5a3da;stroke:#b5a3da;" x="342.07241" xlink:href="#C0_0_e02f3a4a99" y="234.129158"/>
    </g>
    <g clip-path="url(#pf4aed67acb)">
     <use style="fill:#b5a3da;stroke:#b5a3da;" x="342.07241" xlink:href="#C0_0_e02f3a4a99" y="287.348675"/>
    </g>
    <g clip-path="url(#pf4aed67acb)">
     <use style="fill:#b5a3da;stroke:#b5a3da;" x="92.476501" xlink:href="#C0_0_e02f3a4a99" y="15.802424"/>
    </g>
    <g clip-path="url(#pf4aed67acb)">
     <use style="fill:#b5a3da;stroke:#b5a3da;" x="195.234772" xlink:href="#C0_0_e02f3a4a99" y="72.126413"/>
    </g>
    <g clip-path="url(#pf4aed67acb)">
     <use style="fill:#b5a3da;stroke:#b5a3da;" x="124.062035" xlink:href="#C0_0_e02f3a4a99" y="15.802424"/>
    </g>
   </g>
   <g id="text_1">
    <g clip-path="url(#pf4aed67acb)">
     <!-- m3-57 -->
     <defs>
      <path d="M 52 44.1875 
Q 55.375 50.25 60.0625 53.125 
Q 64.75 56 71.09375 56 
Q 79.640625 56 84.28125 50.015625 
Q 88.921875 44.046875 88.921875 33.015625 
L 88.921875 0 
L 79.890625 0 
L 79.890625 32.71875 
Q 79.890625 40.578125 77.09375 44.375 
Q 74.3125 48.1875 68.609375 48.1875 
Q 61.625 48.1875 57.5625 43.546875 
Q 53.515625 38.921875 53.515625 30.90625 
L 53.515625 0 
L 44.484375 0 
L 44.484375 32.71875 
Q 44.484375 40.625 41.703125 44.40625 
Q 38.921875 48.1875 33.109375 48.1875 
Q 26.21875 48.1875 22.15625 43.53125 
Q 18.109375 38.875 18.109375 30.90625 
L 18.109375 0 
L 9.078125 0 
L 9.078125 54.6875 
L 18.109375 54.6875 
L 18.109375 46.1875 
Q 21.1875 51.21875 25.484375 53.609375 
Q 29.78125 56 35.6875 56 
Q 41.65625 56 45.828125 52.96875 
Q 50 49.953125 52 44.1875 
z
" id="DejaVuSans-109"/>
      <path d="M 40.578125 39.3125 
Q 47.65625 37.796875 51.625 33 
Q 55.609375 28.21875 55.609375 21.1875 
Q 55.609375 10.40625 48.1875 4.484375 
Q 40.765625 -1.421875 27.09375 -1.421875 
Q 22.515625 -1.421875 17.65625 -0.515625 
Q 12.796875 0.390625 7.625 2.203125 
L 7.625 11.71875 
Q 11.71875 9.328125 16.59375 8.109375 
Q 21.484375 6.890625 26.8125 6.890625 
Q 36.078125 6.890625 40.9375 10.546875 
Q 45.796875 14.203125 45.796875 21.1875 
Q 45.796875 27.640625 41.28125 31.265625 
Q 36.765625 34.90625 28.71875 34.90625 
L 20.21875 34.90625 
L 20.21875 43.015625 
L 29.109375 43.015625 
Q 36.375 43.015625 40.234375 45.921875 
Q 44.09375 48.828125 44.09375 54.296875 
Q 44.09375 59.90625 40.109375 62.90625 
Q 36.140625 65.921875 28.71875 65.921875 
Q 24.65625 65.921875 20.015625 65.03125 
Q 15.375 64.15625 9.8125 62.3125 
L 9.8125 71.09375 
Q 15.4375 72.65625 20.34375 73.4375 
Q 25.25 74.21875 29.59375 74.21875 
Q 40.828125 74.21875 47.359375 69.109375 
Q 53.90625 64.015625 53.90625 55.328125 
Q 53.90625 49.265625 50.4375 45.09375 
Q 46.96875 40.921875 40.578125 39.3125 
z
" id="DejaVuSans-51"/>
      <path d="M 4.890625 31.390625 
L 31.203125 31.390625 
L 31.203125 23.390625 
L 4.890625 23.390625 
z
" id="DejaVuSans-45"/>
      <path d="M 10.796875 72.90625 
L 49.515625 72.90625 
L 49.515625 64.59375 
L 19.828125 64.59375 
L 19.828125 46.734375 
Q 21.96875 47.46875 24.109375 47.828125 
Q 26.265625 48.1875 28.421875 48.1875 
Q 40.625 48.1875 47.75 41.5 
Q 54.890625 34.8125 54.890625 23.390625 
Q 54.890625 11.625 47.5625 5.09375 
Q 40.234375 -1.421875 26.90625 -1.421875 
Q 22.3125 -1.421875 17.546875 -0.640625 
Q 12.796875 0.140625 7.71875 1.703125 
L 7.71875 11.625 
Q 12.109375 9.234375 16.796875 8.0625 
Q 21.484375 6.890625 26.703125 6.890625 
Q 35.15625 6.890625 40.078125 11.328125 
Q 45.015625 15.765625 45.015625 23.390625 
Q 45.015625 31 40.078125 35.4375 
Q 35.15625 39.890625 26.703125 39.890625 
Q 22.75 39.890625 18.8125 39.015625 
Q 14.890625 38.140625 10.796875 36.28125 
z
" id="DejaVuSans-53"/>
      <path d="M 8.203125 72.90625 
L 55.078125 72.90625 
L 55.078125 68.703125 
L 28.609375 0 
L 18.3125 0 
L 43.21875 64.59375 
L 8.203125 64.59375 
z
" id="DejaVuSans-55"/>
     </defs>
     <g style="fill:#ffffff;" transform="translate(209.959838 213.773366)scale(0.02 -0.02)">
      <use xlink:href="#DejaVuSans-109"/>
      <use x="97.412109" xlink:href="#DejaVuSans-51"/>
      <use x="161.035156" xlink:href="#DejaVuSans-45"/>
      <use x="197.119141" xlink:href="#DejaVuSans-53"/>
      <use x="260.742188" xlink:href="#DejaVuSans-55"/>
     </g>
    </g>
   </g>
   <g id="text_2">
    <g clip-path="url(#pf4aed67acb)">
     <!-- m3-48 -->
     <defs>
      <path d="M 37.796875 64.3125 
L 12.890625 25.390625 
L 37.796875 25.390625 
z
M 35.203125 72.90625 
L 47.609375 72.90625 
L 47.609375 25.390625 
L 58.015625 25.390625 
L 58.015625 17.1875 
L 47.609375 17.1875 
L 47.609375 0 
L 37.796875 0 
L 37.796875 17.1875 
L 4.890625 17.1875 
L 4.890625 26.703125 
z
" id="DejaVuSans-52"/>
      <path d="M 31.78125 34.625 
Q 24.75 34.625 20.71875 30.859375 
Q 16.703125 27.09375 16.703125 20.515625 
Q 16.703125 13.921875 20.71875 10.15625 
Q 24.75 6.390625 31.78125 6.390625 
Q 38.8125 6.390625 42.859375 10.171875 
Q 46.921875 13.96875 46.921875 20.515625 
Q 46.921875 27.09375 42.890625 30.859375 
Q 38.875 34.625 31.78125 34.625 
z
M 21.921875 38.8125 
Q 15.578125 40.375 12.03125 44.71875 
Q 8.5 49.078125 8.5 55.328125 
Q 8.5 64.0625 14.71875 69.140625 
Q 20.953125 74.21875 31.78125 74.21875 
Q 42.671875 74.21875 48.875 69.140625 
Q 55.078125 64.0625 55.078125 55.328125 
Q 55.078125 49.078125 51.53125 44.71875 
Q 48 40.375 41.703125 38.8125 
Q 48.828125 37.15625 52.796875 32.3125 
Q 56.78125 27.484375 56.78125 20.515625 
Q 56.78125 9.90625 50.3125 4.234375 
Q 43.84375 -1.421875 31.78125 -1.421875 
Q 19.734375 -1.421875 13.25 4.234375 
Q 6.78125 9.90625 6.78125 20.515625 
Q 6.78125 27.484375 10.78125 32.3125 
Q 14.796875 37.15625 21.921875 38.8125 
z
M 18.3125 54.390625 
Q 18.3125 48.734375 21.84375 45.5625 
Q 25.390625 42.390625 31.78125 42.390625 
Q 38.140625 42.390625 41.71875 45.5625 
Q 45.3125 48.734375 45.3125 54.390625 
Q 45.3125 60.0625 41.71875 63.234375 
Q 38.140625 66.40625 31.78125 66.40625 
Q 25.390625 66.40625 21.84375 63.234375 
Q 18.3125 60.0625 18.3125 54.390625 
z
" id="DejaVuSans-56"/>
     </defs>
     <g style="fill:#ffffff;" transform="translate(243.651074 250.393462)scale(0.02 -0.02)">
      <use xlink:href="#DejaVuSans-109"/>
      <use x="97.412109" xlink:href="#DejaVuSans-51"/>
      <use x="161.035156" xlink:href="#DejaVuSans-45"/>
      <use x="197.119141" xlink:href="#DejaVuSans-52"/>
      <use x="260.742188" xlink:href="#DejaVuSans-56"/>
     </g>
    </g>
   </g>
   <g id="text_3">
    <g clip-path="url(#pf4aed67acb)">
     <!-- m3-56 -->
     <defs>
      <path d="M 33.015625 40.375 
Q 26.375 40.375 22.484375 35.828125 
Q 18.609375 31.296875 18.609375 23.390625 
Q 18.609375 15.53125 22.484375 10.953125 
Q 26.375 6.390625 33.015625 6.390625 
Q 39.65625 6.390625 43.53125 10.953125 
Q 47.40625 15.53125 47.40625 23.390625 
Q 47.40625 31.296875 43.53125 35.828125 
Q 39.65625 40.375 33.015625 40.375 
z
M 52.59375 71.296875 
L 52.59375 62.3125 
Q 48.875 64.0625 45.09375 64.984375 
Q 41.3125 65.921875 37.59375 65.921875 
Q 27.828125 65.921875 22.671875 59.328125 
Q 17.53125 52.734375 16.796875 39.40625 
Q 19.671875 43.65625 24.015625 45.921875 
Q 28.375 48.1875 33.59375 48.1875 
Q 44.578125 48.1875 50.953125 41.515625 
Q 57.328125 34.859375 57.328125 23.390625 
Q 57.328125 12.15625 50.6875 5.359375 
Q 44.046875 -1.421875 33.015625 -1.421875 
Q 20.359375 -1.421875 13.671875 8.265625 
Q 6.984375 17.96875 6.984375 36.375 
Q 6.984375 53.65625 15.1875 63.9375 
Q 23.390625 74.21875 37.203125 74.21875 
Q 40.921875 74.21875 44.703125 73.484375 
Q 48.484375 72.75 52.59375 71.296875 
z
" id="DejaVuSans-54"/>
     </defs>
     <g style="fill:#ffffff;" transform="translate(176.268601 213.773366)scale(0.02 -0.02)">
      <use xlink:href="#DejaVuSans-109"/>
      <use x="97.412109" xlink:href="#DejaVuSans-51"/>
      <use x="161.035156" xlink:href="#DejaVuSans-45"/>
      <use x="197.119141" xlink:href="#DejaVuSans-53"/>
      <use x="260.742188" xlink:href="#DejaVuSans-54"/>
     </g>
    </g>
   </g>
   <g id="text_4">
    <g clip-path="url(#pf4aed67acb)">
     <!-- m3-94 -->
     <defs>
      <path d="M 10.984375 1.515625 
L 10.984375 10.5 
Q 14.703125 8.734375 18.5 7.8125 
Q 22.3125 6.890625 25.984375 6.890625 
Q 35.75 6.890625 40.890625 13.453125 
Q 46.046875 20.015625 46.78125 33.40625 
Q 43.953125 29.203125 39.59375 26.953125 
Q 35.25 24.703125 29.984375 24.703125 
Q 19.046875 24.703125 12.671875 31.3125 
Q 6.296875 37.9375 6.296875 49.421875 
Q 6.296875 60.640625 12.9375 67.421875 
Q 19.578125 74.21875 30.609375 74.21875 
Q 43.265625 74.21875 49.921875 64.515625 
Q 56.59375 54.828125 56.59375 36.375 
Q 56.59375 19.140625 48.40625 8.859375 
Q 40.234375 -1.421875 26.421875 -1.421875 
Q 22.703125 -1.421875 18.890625 -0.6875 
Q 15.09375 0.046875 10.984375 1.515625 
z
M 30.609375 32.421875 
Q 37.25 32.421875 41.125 36.953125 
Q 45.015625 41.5 45.015625 49.421875 
Q 45.015625 57.28125 41.125 61.84375 
Q 37.25 66.40625 30.609375 66.40625 
Q 23.96875 66.40625 20.09375 61.84375 
Q 16.21875 57.28125 16.21875 49.421875 
Q 16.21875 41.5 20.09375 36.953125 
Q 23.96875 32.421875 30.609375 32.421875 
z
" id="DejaVuSans-57"/>
     </defs>
     <g style="fill:#ffffff;" transform="translate(259.514031 171.831317)scale(0.02 -0.02)">
      <use xlink:href="#DejaVuSans-109"/>
      <use x="97.412109" xlink:href="#DejaVuSans-51"/>
      <use x="161.035156" xlink:href="#DejaVuSans-45"/>
      <use x="197.119141" xlink:href="#DejaVuSans-57"/>
      <use x="260.742188" xlink:href="#DejaVuSans-52"/>
     </g>
    </g>
   </g>
   <g id="text_5">
    <g clip-path="url(#pf4aed67acb)">
     <!-- m3-54 -->
     <g style="fill:#ffffff;" transform="translate(108.886129 213.773366)scale(0.02 -0.02)">
      <use xlink:href="#DejaVuSans-109"/>
      <use x="97.412109" xlink:href="#DejaVuSans-51"/>
      <use x="161.035156" xlink:href="#DejaVuSans-45"/>
      <use x="197.119141" xlink:href="#DejaVuSans-53"/>
      <use x="260.742188" xlink:href="#DejaVuSans-52"/>
     </g>
    </g>
   </g>
   <g id="text_6">
    <g clip-path="url(#pf4aed67acb)">
     <!-- m3-116 -->
     <defs>
      <path d="M 12.40625 8.296875 
L 28.515625 8.296875 
L 28.515625 63.921875 
L 10.984375 60.40625 
L 10.984375 69.390625 
L 28.421875 72.90625 
L 38.28125 72.90625 
L 38.28125 8.296875 
L 54.390625 8.296875 
L 54.390625 0 
L 12.40625 0 
z
" id="DejaVuSans-49"/>
     </defs>
     <g style="fill:#ffffff;" transform="translate(109.23254 230.562856)scale(0.02 -0.02)">
      <use xlink:href="#DejaVuSans-109"/>
      <use x="97.412109" xlink:href="#DejaVuSans-51"/>
      <use x="161.035156" xlink:href="#DejaVuSans-45"/>
      <use x="197.119141" xlink:href="#DejaVuSans-49"/>
      <use x="260.742188" xlink:href="#DejaVuSans-49"/>
      <use x="324.365234" xlink:href="#DejaVuSans-54"/>
     </g>
    </g>
   </g>
   <g id="text_7">
    <g clip-path="url(#pf4aed67acb)">
     <!-- m3-117 -->
     <g style="fill:#ffffff;" transform="translate(219.711719 230.562856)scale(0.02 -0.02)">
      <use xlink:href="#DejaVuSans-109"/>
      <use x="97.412109" xlink:href="#DejaVuSans-51"/>
      <use x="161.035156" xlink:href="#DejaVuSans-45"/>
      <use x="197.119141" xlink:href="#DejaVuSans-49"/>
      <use x="260.742188" xlink:href="#DejaVuSans-49"/>
      <use x="324.365234" xlink:href="#DejaVuSans-55"/>
     </g>
    </g>
   </g>
   <g id="text_8">
    <g clip-path="url(#pf4aed67acb)">
     <!-- m3-95 -->
     <g style="fill:#ffffff;" transform="translate(310.050886 171.831317)scale(0.02 -0.02)">
      <use xlink:href="#DejaVuSans-109"/>
      <use x="97.412109" xlink:href="#DejaVuSans-51"/>
      <use x="161.035156" xlink:href="#DejaVuSans-45"/>
      <use x="197.119141" xlink:href="#DejaVuSans-57"/>
      <use x="260.742188" xlink:href="#DejaVuSans-53"/>
     </g>
    </g>
   </g>
   <g id="text_9">
    <g clip-path="url(#pf4aed67acb)">
     <!-- m3-98 -->
     <g style="fill:#ffffff;" transform="translate(310.050886 149.022953)scale(0.02 -0.02)">
      <use xlink:href="#DejaVuSans-109"/>
      <use x="97.412109" xlink:href="#DejaVuSans-51"/>
      <use x="161.035156" xlink:href="#DejaVuSans-45"/>
      <use x="197.119141" xlink:href="#DejaVuSans-57"/>
      <use x="260.742188" xlink:href="#DejaVuSans-56"/>
     </g>
    </g>
   </g>
   <g id="text_10">
    <g clip-path="url(#pf4aed67acb)">
     <!-- m3-12 -->
     <defs>
      <path d="M 19.1875 8.296875 
L 53.609375 8.296875 
L 53.609375 0 
L 7.328125 0 
L 7.328125 8.296875 
Q 12.9375 14.109375 22.625 23.890625 
Q 32.328125 33.6875 34.8125 36.53125 
Q 39.546875 41.84375 41.421875 45.53125 
Q 43.3125 49.21875 43.3125 52.78125 
Q 43.3125 58.59375 39.234375 62.25 
Q 35.15625 65.921875 28.609375 65.921875 
Q 23.96875 65.921875 18.8125 64.3125 
Q 13.671875 62.703125 7.8125 59.421875 
L 7.8125 69.390625 
Q 13.765625 71.78125 18.9375 73 
Q 24.125 74.21875 28.421875 74.21875 
Q 39.75 74.21875 46.484375 68.546875 
Q 53.21875 62.890625 53.21875 53.421875 
Q 53.21875 48.921875 51.53125 44.890625 
Q 49.859375 40.875 45.40625 35.40625 
Q 44.1875 33.984375 37.640625 27.21875 
Q 31.109375 20.453125 19.1875 8.296875 
z
" id="DejaVuSans-50"/>
     </defs>
     <g style="fill:#ffffff;" transform="translate(128.67973 169.474453)scale(0.02 -0.02)">
      <use xlink:href="#DejaVuSans-109"/>
      <use x="97.412109" xlink:href="#DejaVuSans-51"/>
      <use x="161.035156" xlink:href="#DejaVuSans-45"/>
      <use x="197.119141" xlink:href="#DejaVuSans-49"/>
      <use x="260.742188" xlink:href="#DejaVuSans-50"/>
     </g>
    </g>
   </g>
   <g id="text_11">
    <g clip-path="url(#pf4aed67acb)">
     <!-- m3-64 -->
     <g style="fill:#ffffff;" transform="translate(124.608706 168.410063)scale(0.02 -0.02)">
      <use xlink:href="#DejaVuSans-109"/>
      <use x="97.412109" xlink:href="#DejaVuSans-51"/>
      <use x="161.035156" xlink:href="#DejaVuSans-45"/>
      <use x="197.119141" xlink:href="#DejaVuSans-54"/>
      <use x="260.742188" xlink:href="#DejaVuSans-52"/>
     </g>
    </g>
   </g>
   <g id="text_12">
    <g clip-path="url(#pf4aed67acb)">
     <!-- m3-63 -->
     <g style="fill:#ffffff;" transform="translate(89.232908 168.410063)scale(0.02 -0.02)">
      <use xlink:href="#DejaVuSans-109"/>
      <use x="97.412109" xlink:href="#DejaVuSans-51"/>
      <use x="161.035156" xlink:href="#DejaVuSans-45"/>
      <use x="197.119141" xlink:href="#DejaVuSans-54"/>
      <use x="260.742188" xlink:href="#DejaVuSans-51"/>
     </g>
    </g>
   </g>
   <g id="text_13">
    <g clip-path="url(#pf4aed67acb)">
     <!-- m3-47 -->
     <g style="fill:#ffffff;" transform="translate(89.232908 260.150373)scale(0.02 -0.02)">
      <use xlink:href="#DejaVuSans-109"/>
      <use x="97.412109" xlink:href="#DejaVuSans-51"/>
      <use x="161.035156" xlink:href="#DejaVuSans-45"/>
      <use x="197.119141" xlink:href="#DejaVuSans-52"/>
      <use x="260.742188" xlink:href="#DejaVuSans-55"/>
     </g>
    </g>
   </g>
   <g id="text_14">
    <g clip-path="url(#pf4aed67acb)">
     <!-- m3-58 -->
     <g style="fill:#ffffff;" transform="translate(243.651074 213.773366)scale(0.02 -0.02)">
      <use xlink:href="#DejaVuSans-109"/>
      <use x="97.412109" xlink:href="#DejaVuSans-51"/>
      <use x="161.035156" xlink:href="#DejaVuSans-45"/>
      <use x="197.119141" xlink:href="#DejaVuSans-53"/>
      <use x="260.742188" xlink:href="#DejaVuSans-56"/>
     </g>
    </g>
   </g>
   <g id="text_15">
    <g clip-path="url(#pf4aed67acb)">
     <!-- m3-213 -->
     <g style="fill:#ffffff;" transform="translate(284.286589 233.287189)scale(0.02 -0.02)">
      <use xlink:href="#DejaVuSans-109"/>
      <use x="97.412109" xlink:href="#DejaVuSans-51"/>
      <use x="161.035156" xlink:href="#DejaVuSans-45"/>
      <use x="197.119141" xlink:href="#DejaVuSans-50"/>
      <use x="260.742188" xlink:href="#DejaVuSans-49"/>
      <use x="324.365234" xlink:href="#DejaVuSans-51"/>
     </g>
    </g>
   </g>
   <g id="text_16">
    <g clip-path="url(#pf4aed67acb)">
     <!-- m3-219 -->
     <g style="fill:#ffffff;" transform="translate(317.977825 223.910416)scale(0.02 -0.02)">
      <use xlink:href="#DejaVuSans-109"/>
      <use x="97.412109" xlink:href="#DejaVuSans-51"/>
      <use x="161.035156" xlink:href="#DejaVuSans-45"/>
      <use x="197.119141" xlink:href="#DejaVuSans-50"/>
      <use x="260.742188" xlink:href="#DejaVuSans-49"/>
      <use x="324.365234" xlink:href="#DejaVuSans-57"/>
     </g>
    </g>
   </g>
   <g id="text_17">
    <g clip-path="url(#pf4aed67acb)">
     <!-- m3-239 -->
     <g style="fill:#ffffff;" transform="translate(301.132207 178.293687)scale(0.02 -0.02)">
      <use xlink:href="#DejaVuSans-109"/>
      <use x="97.412109" xlink:href="#DejaVuSans-51"/>
      <use x="161.035156" xlink:href="#DejaVuSans-45"/>
      <use x="197.119141" xlink:href="#DejaVuSans-50"/>
      <use x="260.742188" xlink:href="#DejaVuSans-51"/>
      <use x="324.365234" xlink:href="#DejaVuSans-57"/>
     </g>
    </g>
   </g>
   <g id="text_18">
    <g clip-path="url(#pf4aed67acb)">
     <!-- m3-5 -->
     <g style="fill:#ffffff;" transform="translate(143.775136 211.21376)scale(0.02 -0.02)">
      <use xlink:href="#DejaVuSans-109"/>
      <use x="97.412109" xlink:href="#DejaVuSans-51"/>
      <use x="161.035156" xlink:href="#DejaVuSans-45"/>
      <use x="197.119141" xlink:href="#DejaVuSans-53"/>
     </g>
    </g>
   </g>
   <g id="text_19">
    <g clip-path="url(#pf4aed67acb)">
     <!-- m3-68 -->
     <g style="fill:#ffffff;" transform="translate(108.886129 109.615167)scale(0.02 -0.02)">
      <use xlink:href="#DejaVuSans-109"/>
      <use x="97.412109" xlink:href="#DejaVuSans-51"/>
      <use x="161.035156" xlink:href="#DejaVuSans-45"/>
      <use x="197.119141" xlink:href="#DejaVuSans-54"/>
      <use x="260.742188" xlink:href="#DejaVuSans-56"/>
     </g>
    </g>
   </g>
   <g id="text_20">
    <g clip-path="url(#pf4aed67acb)">
     <!-- m3-66 -->
     <g style="fill:#ffffff;" transform="translate(89.232908 137.99891)scale(0.02 -0.02)">
      <use xlink:href="#DejaVuSans-109"/>
      <use x="97.412109" xlink:href="#DejaVuSans-51"/>
      <use x="161.035156" xlink:href="#DejaVuSans-45"/>
      <use x="197.119141" xlink:href="#DejaVuSans-54"/>
      <use x="260.742188" xlink:href="#DejaVuSans-54"/>
     </g>
    </g>
   </g>
   <g id="text_21">
    <g clip-path="url(#pf4aed67acb)">
     <!-- m3-112 -->
     <g style="fill:#ffffff;" transform="translate(17.143161 280.551188)scale(0.02 -0.02)">
      <use xlink:href="#DejaVuSans-109"/>
      <use x="97.412109" xlink:href="#DejaVuSans-51"/>
      <use x="161.035156" xlink:href="#DejaVuSans-45"/>
      <use x="197.119141" xlink:href="#DejaVuSans-49"/>
      <use x="260.742188" xlink:href="#DejaVuSans-49"/>
      <use x="324.365234" xlink:href="#DejaVuSans-50"/>
     </g>
    </g>
   </g>
   <g id="text_22">
    <g clip-path="url(#pf4aed67acb)">
     <!-- m3-55 -->
     <g style="fill:#ffffff;" transform="translate(142.577365 213.773366)scale(0.02 -0.02)">
      <use xlink:href="#DejaVuSans-109"/>
      <use x="97.412109" xlink:href="#DejaVuSans-51"/>
      <use x="161.035156" xlink:href="#DejaVuSans-45"/>
      <use x="197.119141" xlink:href="#DejaVuSans-53"/>
      <use x="260.742188" xlink:href="#DejaVuSans-53"/>
     </g>
    </g>
   </g>
   <g id="text_23">
    <g clip-path="url(#pf4aed67acb)">
     <!-- m3-6 -->
     <g style="fill:#ffffff;" transform="translate(177.466372 211.21376)scale(0.02 -0.02)">
      <use xlink:href="#DejaVuSans-109"/>
      <use x="97.412109" xlink:href="#DejaVuSans-51"/>
      <use x="161.035156" xlink:href="#DejaVuSans-45"/>
      <use x="197.119141" xlink:href="#DejaVuSans-54"/>
     </g>
    </g>
   </g>
   <g id="text_24">
    <g clip-path="url(#pf4aed67acb)">
     <!-- m3-225 -->
     <g style="fill:#ffffff;" transform="translate(267.44097 208.70484)scale(0.02 -0.02)">
      <use xlink:href="#DejaVuSans-109"/>
      <use x="97.412109" xlink:href="#DejaVuSans-51"/>
      <use x="161.035156" xlink:href="#DejaVuSans-45"/>
      <use x="197.119141" xlink:href="#DejaVuSans-50"/>
      <use x="260.742188" xlink:href="#DejaVuSans-50"/>
      <use x="324.365234" xlink:href="#DejaVuSans-53"/>
     </g>
    </g>
   </g>
   <g id="text_25">
    <g clip-path="url(#pf4aed67acb)">
     <!-- m3-217 -->
     <g style="fill:#ffffff;" transform="translate(368.514679 233.287189)scale(0.02 -0.02)">
      <use xlink:href="#DejaVuSans-109"/>
      <use x="97.412109" xlink:href="#DejaVuSans-51"/>
      <use x="161.035156" xlink:href="#DejaVuSans-45"/>
      <use x="197.119141" xlink:href="#DejaVuSans-50"/>
      <use x="260.742188" xlink:href="#DejaVuSans-49"/>
      <use x="324.365234" xlink:href="#DejaVuSans-55"/>
     </g>
    </g>
   </g>
   <g id="text_26">
    <g clip-path="url(#pf4aed67acb)">
     <!-- m3-194 -->
     <g style="fill:#ffffff;" transform="translate(368.514679 269.527146)scale(0.02 -0.02)">
      <use xlink:href="#DejaVuSans-109"/>
      <use x="97.412109" xlink:href="#DejaVuSans-51"/>
      <use x="161.035156" xlink:href="#DejaVuSans-45"/>
      <use x="197.119141" xlink:href="#DejaVuSans-49"/>
      <use x="260.742188" xlink:href="#DejaVuSans-57"/>
      <use x="324.365234" xlink:href="#DejaVuSans-52"/>
     </g>
    </g>
   </g>
   <g id="text_27">
    <g clip-path="url(#pf4aed67acb)">
     <!-- m3-248 -->
     <g style="fill:#ffffff;" transform="translate(385.360297 163.088111)scale(0.02 -0.02)">
      <use xlink:href="#DejaVuSans-109"/>
      <use x="97.412109" xlink:href="#DejaVuSans-51"/>
      <use x="161.035156" xlink:href="#DejaVuSans-45"/>
      <use x="197.119141" xlink:href="#DejaVuSans-50"/>
      <use x="260.742188" xlink:href="#DejaVuSans-52"/>
      <use x="324.365234" xlink:href="#DejaVuSans-56"/>
     </g>
    </g>
   </g>
   <g id="text_28">
    <g clip-path="url(#pf4aed67acb)">
     <!-- m3-199 -->
     <g style="fill:#ffffff;" transform="translate(317.977825 254.321569)scale(0.02 -0.02)">
      <use xlink:href="#DejaVuSans-109"/>
      <use x="97.412109" xlink:href="#DejaVuSans-51"/>
      <use x="161.035156" xlink:href="#DejaVuSans-45"/>
      <use x="197.119141" xlink:href="#DejaVuSans-49"/>
      <use x="260.742188" xlink:href="#DejaVuSans-57"/>
      <use x="324.365234" xlink:href="#DejaVuSans-57"/>
     </g>
    </g>
   </g>
   <g id="text_29">
    <g clip-path="url(#pf4aed67acb)">
     <!-- m3-3 -->
     <g style="fill:#ffffff;" transform="translate(228.003226 227.306328)scale(0.02 -0.02)">
      <use xlink:href="#DejaVuSans-109"/>
      <use x="97.412109" xlink:href="#DejaVuSans-51"/>
      <use x="161.035156" xlink:href="#DejaVuSans-45"/>
      <use x="197.119141" xlink:href="#DejaVuSans-51"/>
     </g>
    </g>
   </g>
   <g id="text_30">
    <g clip-path="url(#pf4aed67acb)">
     <!-- m3-77 -->
     <g style="fill:#ffffff;" transform="translate(120.818442 46.765452)scale(0.02 -0.02)">
      <use xlink:href="#DejaVuSans-109"/>
      <use x="97.412109" xlink:href="#DejaVuSans-51"/>
      <use x="161.035156" xlink:href="#DejaVuSans-45"/>
      <use x="197.119141" xlink:href="#DejaVuSans-55"/>
      <use x="260.742188" xlink:href="#DejaVuSans-55"/>
     </g>
    </g>
   </g>
   <g id="text_31">
    <g clip-path="url(#pf4aed67acb)">
     <!-- m3-76 -->
     <g style="fill:#ffffff;" transform="translate(89.232908 46.765452)scale(0.02 -0.02)">
      <use xlink:href="#DejaVuSans-109"/>
      <use x="97.412109" xlink:href="#DejaVuSans-51"/>
      <use x="161.035156" xlink:href="#DejaVuSans-45"/>
      <use x="197.119141" xlink:href="#DejaVuSans-55"/>
      <use x="260.742188" xlink:href="#DejaVuSans-54"/>
     </g>
    </g>
   </g>
   <g id="text_32">
    <g clip-path="url(#pf4aed67acb)">
     <!-- m3-78 -->
     <g style="fill:#ffffff;" transform="translate(146.086869 46.765452)scale(0.02 -0.02)">
      <use xlink:href="#DejaVuSans-109"/>
      <use x="97.412109" xlink:href="#DejaVuSans-51"/>
      <use x="161.035156" xlink:href="#DejaVuSans-45"/>
      <use x="197.119141" xlink:href="#DejaVuSans-55"/>
      <use x="260.742188" xlink:href="#DejaVuSans-56"/>
     </g>
    </g>
   </g>
   <g id="text_33">
    <g clip-path="url(#pf4aed67acb)">
     <!-- m3-120 -->
     <defs>
      <path d="M 31.78125 66.40625 
Q 24.171875 66.40625 20.328125 58.90625 
Q 16.5 51.421875 16.5 36.375 
Q 16.5 21.390625 20.328125 13.890625 
Q 24.171875 6.390625 31.78125 6.390625 
Q 39.453125 6.390625 43.28125 13.890625 
Q 47.125 21.390625 47.125 36.375 
Q 47.125 51.421875 43.28125 58.90625 
Q 39.453125 66.40625 31.78125 66.40625 
z
M 31.78125 74.21875 
Q 44.046875 74.21875 50.515625 64.515625 
Q 56.984375 54.828125 56.984375 36.375 
Q 56.984375 17.96875 50.515625 8.265625 
Q 44.046875 -1.421875 31.78125 -1.421875 
Q 19.53125 -1.421875 13.0625 8.265625 
Q 6.59375 17.96875 6.59375 36.375 
Q 6.59375 54.828125 13.0625 64.515625 
Q 19.53125 74.21875 31.78125 74.21875 
z
" id="DejaVuSans-48"/>
     </defs>
     <g style="fill:#ffffff;" transform="translate(68.381916 177.913548)scale(0.02 -0.02)">
      <use xlink:href="#DejaVuSans-109"/>
      <use x="97.412109" xlink:href="#DejaVuSans-51"/>
      <use x="161.035156" xlink:href="#DejaVuSans-45"/>
      <use x="197.119141" xlink:href="#DejaVuSans-49"/>
      <use x="260.742188" xlink:href="#DejaVuSans-50"/>
      <use x="324.365234" xlink:href="#DejaVuSans-48"/>
     </g>
    </g>
   </g>
   <g id="text_34">
    <g clip-path="url(#pf4aed67acb)">
     <!-- m3-121 -->
     <g style="fill:#ffffff;" transform="translate(17.143161 126.594728)scale(0.02 -0.02)">
      <use xlink:href="#DejaVuSans-109"/>
      <use x="97.412109" xlink:href="#DejaVuSans-51"/>
      <use x="161.035156" xlink:href="#DejaVuSans-45"/>
      <use x="197.119141" xlink:href="#DejaVuSans-49"/>
      <use x="260.742188" xlink:href="#DejaVuSans-50"/>
      <use x="324.365234" xlink:href="#DejaVuSans-49"/>
     </g>
    </g>
   </g>
   <g id="text_35">
    <g clip-path="url(#pf4aed67acb)">
     <!-- m3-71 -->
     <g style="fill:#ffffff;" transform="translate(89.232908 77.176604)scale(0.02 -0.02)">
      <use xlink:href="#DejaVuSans-109"/>
      <use x="97.412109" xlink:href="#DejaVuSans-51"/>
      <use x="161.035156" xlink:href="#DejaVuSans-45"/>
      <use x="197.119141" xlink:href="#DejaVuSans-55"/>
      <use x="260.742188" xlink:href="#DejaVuSans-49"/>
     </g>
    </g>
   </g>
   <g id="text_36">
    <g clip-path="url(#pf4aed67acb)">
     <!-- m3-118 -->
     <g style="fill:#ffffff;" transform="translate(17.143161 229.232368)scale(0.02 -0.02)">
      <use xlink:href="#DejaVuSans-109"/>
      <use x="97.412109" xlink:href="#DejaVuSans-51"/>
      <use x="161.035156" xlink:href="#DejaVuSans-45"/>
      <use x="197.119141" xlink:href="#DejaVuSans-49"/>
      <use x="260.742188" xlink:href="#DejaVuSans-49"/>
      <use x="324.365234" xlink:href="#DejaVuSans-56"/>
     </g>
    </g>
   </g>
   <g id="text_37">
    <g clip-path="url(#pf4aed67acb)">
     <!-- m3-90 -->
     <g style="fill:#ffffff;" transform="translate(284.782458 206.043864)scale(0.02 -0.02)">
      <use xlink:href="#DejaVuSans-109"/>
      <use x="97.412109" xlink:href="#DejaVuSans-51"/>
      <use x="161.035156" xlink:href="#DejaVuSans-45"/>
      <use x="197.119141" xlink:href="#DejaVuSans-57"/>
      <use x="260.742188" xlink:href="#DejaVuSans-48"/>
     </g>
    </g>
   </g>
   <g id="text_38">
    <g clip-path="url(#pf4aed67acb)">
     <!-- m3-172 -->
     <g style="fill:#ffffff;" transform="translate(368.514679 299.938298)scale(0.02 -0.02)">
      <use xlink:href="#DejaVuSans-109"/>
      <use x="97.412109" xlink:href="#DejaVuSans-51"/>
      <use x="161.035156" xlink:href="#DejaVuSans-45"/>
      <use x="197.119141" xlink:href="#DejaVuSans-49"/>
      <use x="260.742188" xlink:href="#DejaVuSans-55"/>
      <use x="324.365234" xlink:href="#DejaVuSans-50"/>
     </g>
    </g>
   </g>
   <g id="text_39">
    <g clip-path="url(#pf4aed67acb)">
     <!-- m3-195 -->
     <g style="fill:#ffffff;" transform="translate(402.205916 269.527146)scale(0.02 -0.02)">
      <use xlink:href="#DejaVuSans-109"/>
      <use x="97.412109" xlink:href="#DejaVuSans-51"/>
      <use x="161.035156" xlink:href="#DejaVuSans-45"/>
      <use x="197.119141" xlink:href="#DejaVuSans-49"/>
      <use x="260.742188" xlink:href="#DejaVuSans-57"/>
      <use x="324.365234" xlink:href="#DejaVuSans-53"/>
     </g>
    </g>
   </g>
   <g id="text_40">
    <g clip-path="url(#pf4aed67acb)">
     <!-- m3-234 -->
     <g style="fill:#ffffff;" transform="translate(351.669061 193.499264)scale(0.02 -0.02)">
      <use xlink:href="#DejaVuSans-109"/>
      <use x="97.412109" xlink:href="#DejaVuSans-51"/>
      <use x="161.035156" xlink:href="#DejaVuSans-45"/>
      <use x="197.119141" xlink:href="#DejaVuSans-50"/>
      <use x="260.742188" xlink:href="#DejaVuSans-51"/>
      <use x="324.365234" xlink:href="#DejaVuSans-52"/>
     </g>
    </g>
   </g>
   <g id="text_41">
    <g clip-path="url(#pf4aed67acb)">
     <!-- m3-154 -->
     <g style="fill:#ffffff;" transform="translate(334.823443 330.349451)scale(0.02 -0.02)">
      <use xlink:href="#DejaVuSans-109"/>
      <use x="97.412109" xlink:href="#DejaVuSans-51"/>
      <use x="161.035156" xlink:href="#DejaVuSans-45"/>
      <use x="197.119141" xlink:href="#DejaVuSans-49"/>
      <use x="260.742188" xlink:href="#DejaVuSans-53"/>
      <use x="324.365234" xlink:href="#DejaVuSans-52"/>
     </g>
    </g>
   </g>
   <g id="text_42">
    <g clip-path="url(#pf4aed67acb)">
     <!-- m3-170 -->
     <g style="fill:#ffffff;" transform="translate(301.132207 299.938298)scale(0.02 -0.02)">
      <use xlink:href="#DejaVuSans-109"/>
      <use x="97.412109" xlink:href="#DejaVuSans-51"/>
      <use x="161.035156" xlink:href="#DejaVuSans-45"/>
      <use x="197.119141" xlink:href="#DejaVuSans-49"/>
      <use x="260.742188" xlink:href="#DejaVuSans-55"/>
      <use x="324.365234" xlink:href="#DejaVuSans-48"/>
     </g>
    </g>
   </g>
   <g id="text_43">
    <g clip-path="url(#pf4aed67acb)">
     <!-- m3-255 -->
     <g style="fill:#ffffff;" transform="translate(435.897152 147.882535)scale(0.02 -0.02)">
      <use xlink:href="#DejaVuSans-109"/>
      <use x="97.412109" xlink:href="#DejaVuSans-51"/>
      <use x="161.035156" xlink:href="#DejaVuSans-45"/>
      <use x="197.119141" xlink:href="#DejaVuSans-50"/>
      <use x="260.742188" xlink:href="#DejaVuSans-53"/>
      <use x="324.365234" xlink:href="#DejaVuSans-53"/>
     </g>
    </g>
   </g>
   <g id="text_44">
    <g clip-path="url(#pf4aed67acb)">
     <!-- m3-243 -->
     <g style="fill:#ffffff;" transform="translate(435.897152 178.293687)scale(0.02 -0.02)">
      <use xlink:href="#DejaVuSans-109"/>
      <use x="97.412109" xlink:href="#DejaVuSans-51"/>
      <use x="161.035156" xlink:href="#DejaVuSans-45"/>
      <use x="197.119141" xlink:href="#DejaVuSans-50"/>
      <use x="260.742188" xlink:href="#DejaVuSans-52"/>
      <use x="324.365234" xlink:href="#DejaVuSans-51"/>
     </g>
    </g>
   </g>
   <g id="text_45">
    <g clip-path="url(#pf4aed67acb)">
     <!-- m3-252 -->
     <g style="fill:#ffffff;" transform="translate(334.823443 147.882535)scale(0.02 -0.02)">
      <use xlink:href="#DejaVuSans-109"/>
      <use x="97.412109" xlink:href="#DejaVuSans-51"/>
      <use x="161.035156" xlink:href="#DejaVuSans-45"/>
      <use x="197.119141" xlink:href="#DejaVuSans-50"/>
      <use x="260.742188" xlink:href="#DejaVuSans-53"/>
      <use x="324.365234" xlink:href="#DejaVuSans-50"/>
     </g>
    </g>
   </g>
   <g id="text_46">
    <g clip-path="url(#pf4aed67acb)">
     <!-- m3-110 -->
     <g style="fill:#ffffff;" transform="translate(338.192567 234.681033)scale(0.02 -0.02)">
      <use xlink:href="#DejaVuSans-109"/>
      <use x="97.412109" xlink:href="#DejaVuSans-51"/>
      <use x="161.035156" xlink:href="#DejaVuSans-45"/>
      <use x="197.119141" xlink:href="#DejaVuSans-49"/>
      <use x="260.742188" xlink:href="#DejaVuSans-49"/>
      <use x="324.365234" xlink:href="#DejaVuSans-48"/>
     </g>
    </g>
   </g>
   <g id="text_47">
    <g clip-path="url(#pf4aed67acb)">
     <!-- m3-105 -->
     <g style="fill:#ffffff;" transform="translate(338.192567 287.90055)scale(0.02 -0.02)">
      <use xlink:href="#DejaVuSans-109"/>
      <use x="97.412109" xlink:href="#DejaVuSans-51"/>
      <use x="161.035156" xlink:href="#DejaVuSans-45"/>
      <use x="197.119141" xlink:href="#DejaVuSans-49"/>
      <use x="260.742188" xlink:href="#DejaVuSans-48"/>
      <use x="324.365234" xlink:href="#DejaVuSans-53"/>
     </g>
    </g>
   </g>
   <g id="text_48">
    <g clip-path="url(#pf4aed67acb)">
     <!-- m3-80 -->
     <g style="fill:#ffffff;" transform="translate(89.232908 16.354299)scale(0.02 -0.02)">
      <use xlink:href="#DejaVuSans-109"/>
      <use x="97.412109" xlink:href="#DejaVuSans-51"/>
      <use x="161.035156" xlink:href="#DejaVuSans-45"/>
      <use x="197.119141" xlink:href="#DejaVuSans-56"/>
      <use x="260.742188" xlink:href="#DejaVuSans-48"/>
     </g>
    </g>
   </g>
   <g id="text_49">
    <g clip-path="url(#pf4aed67acb)">
     <!-- m3-13 -->
     <g style="fill:#ffffff;" transform="translate(191.991178 72.678288)scale(0.02 -0.02)">
      <use xlink:href="#DejaVuSans-109"/>
      <use x="97.412109" xlink:href="#DejaVuSans-51"/>
      <use x="161.035156" xlink:href="#DejaVuSans-45"/>
      <use x="197.119141" xlink:href="#DejaVuSans-49"/>
      <use x="260.742188" xlink:href="#DejaVuSans-51"/>
     </g>
    </g>
   </g>
   <g id="text_50">
    <g clip-path="url(#pf4aed67acb)">
     <!-- m3-81 -->
     <g style="fill:#ffffff;" transform="translate(120.818442 16.354299)scale(0.02 -0.02)">
      <use xlink:href="#DejaVuSans-109"/>
      <use x="97.412109" xlink:href="#DejaVuSans-51"/>
      <use x="161.035156" xlink:href="#DejaVuSans-45"/>
      <use x="197.119141" xlink:href="#DejaVuSans-56"/>
      <use x="260.742188" xlink:href="#DejaVuSans-49"/>
     </g>
    </g>
   </g>
  </g>
 </g>
 <defs>
  <clipPath id="pf4aed67acb">
   <rect height="345.6" width="460.8" x="0" y="0"/>
  </clipPath>
 </defs>
</svg>
