<?xml version="1.0" encoding="utf-8" standalone="no"?>
<!DOCTYPE svg PUBLIC "-//W3C//DTD SVG 1.1//EN"
  "http://www.w3.org/Graphics/SVG/1.1/DTD/svg11.dtd">
<!-- Created with matplotlib (https://matplotlib.org/) -->
<svg height="345.6pt" version="1.1" viewBox="0 0 460.8 345.6" width="460.8pt" xmlns="http://www.w3.org/2000/svg" xmlns:xlink="http://www.w3.org/1999/xlink">
 <defs>
  <style type="text/css">
*{stroke-linecap:butt;stroke-linejoin:round;white-space:pre;}
  </style>
 </defs>
 <g id="figure_1">
  <g id="patch_1">
   <path d="M 0 345.6 
L 460.8 345.6 
L 460.8 0 
L 0 0 
z
" style="fill:#ffffff;"/>
  </g>
  <g id="axes_1">
   <g id="LineCollection_1">
    <path clip-path="url(#p96066bb68a)" d="M 238.334161 142.16631 
L 243.926397 166.113228 
" style="fill:none;stroke:#000000;"/>
    <path clip-path="url(#p96066bb68a)" d="M 238.334161 142.16631 
L 235.685557 127.752743 
" style="fill:none;stroke:#000000;"/>
    <path clip-path="url(#p96066bb68a)" d="M 243.926397 166.113228 
L 252.521897 210.271068 
" style="fill:none;stroke:#000000;"/>
    <path clip-path="url(#p96066bb68a)" d="M 235.685557 127.752743 
L 274.692562 105.380847 
" style="fill:none;stroke:#000000;"/>
    <path clip-path="url(#p96066bb68a)" d="M 235.685557 127.752743 
L 172.323201 108.64823 
" style="fill:none;stroke:#000000;"/>
    <path clip-path="url(#p96066bb68a)" d="M 252.521897 210.271068 
L 184.709791 214.496878 
" style="fill:none;stroke:#000000;"/>
    <path clip-path="url(#p96066bb68a)" d="M 252.521897 210.271068 
L 241.752644 231.186299 
" style="fill:none;stroke:#000000;"/>
    <path clip-path="url(#p96066bb68a)" d="M 252.521897 210.271068 
L 294.858955 214.631254 
" style="fill:none;stroke:#000000;"/>
    <path clip-path="url(#p96066bb68a)" d="M 274.692562 105.380847 
L 260.518869 76.600053 
" style="fill:none;stroke:#000000;"/>
    <path clip-path="url(#p96066bb68a)" d="M 274.692562 105.380847 
L 310.450021 95.872962 
" style="fill:none;stroke:#000000;"/>
    <path clip-path="url(#p96066bb68a)" d="M 172.323201 108.64823 
L 105.103216 107.942392 
" style="fill:none;stroke:#000000;"/>
    <path clip-path="url(#p96066bb68a)" d="M 172.323201 108.64823 
L 161.369759 82.636874 
" style="fill:none;stroke:#000000;"/>
    <path clip-path="url(#p96066bb68a)" d="M 184.709791 214.496878 
L 144.137928 221.773102 
" style="fill:none;stroke:#000000;"/>
    <path clip-path="url(#p96066bb68a)" d="M 241.752644 231.186299 
L 197.062898 256.635964 
" style="fill:none;stroke:#000000;"/>
    <path clip-path="url(#p96066bb68a)" d="M 241.752644 231.186299 
L 253.800657 264.134928 
" style="fill:none;stroke:#000000;"/>
    <path clip-path="url(#p96066bb68a)" d="M 294.858955 214.631254 
L 338.364595 224.094731 
" style="fill:none;stroke:#000000;"/>
    <path clip-path="url(#p96066bb68a)" d="M 260.518869 76.600053 
L 257.216831 56.297463 
" style="fill:none;stroke:#000000;"/>
    <path clip-path="url(#p96066bb68a)" d="M 310.450021 95.872962 
L 351.108954 76.17355 
" style="fill:none;stroke:#000000;"/>
    <path clip-path="url(#p96066bb68a)" d="M 105.103216 107.942392 
L 83.392894 104.106412 
" style="fill:none;stroke:#000000;"/>
    <path clip-path="url(#p96066bb68a)" d="M 161.369759 82.636874 
L 123.049848 44.39885 
" style="fill:none;stroke:#000000;"/>
    <path clip-path="url(#p96066bb68a)" d="M 161.369759 82.636874 
L 166.655643 54.653788 
" style="fill:none;stroke:#000000;"/>
    <path clip-path="url(#p96066bb68a)" d="M 144.137928 221.773102 
L 86.021398 212.232391 
" style="fill:none;stroke:#000000;"/>
    <path clip-path="url(#p96066bb68a)" d="M 144.137928 221.773102 
L 114.879755 237.337348 
" style="fill:none;stroke:#000000;"/>
    <path clip-path="url(#p96066bb68a)" d="M 197.062898 256.635964 
L 155.349932 290.249366 
" style="fill:none;stroke:#000000;"/>
    <path clip-path="url(#p96066bb68a)" d="M 253.800657 264.134928 
L 259.305724 298.566895 
" style="fill:none;stroke:#000000;"/>
    <path clip-path="url(#p96066bb68a)" d="M 253.800657 264.134928 
L 278.985537 270.518273 
" style="fill:none;stroke:#000000;"/>
    <path clip-path="url(#p96066bb68a)" d="M 338.364595 224.094731 
L 380.91691 257.571822 
" style="fill:none;stroke:#000000;"/>
    <path clip-path="url(#p96066bb68a)" d="M 338.364595 224.094731 
L 398.684277 211.18774 
" style="fill:none;stroke:#000000;"/>
    <path clip-path="url(#p96066bb68a)" d="M 257.216831 56.297463 
L 254.261126 16.898306 
" style="fill:none;stroke:#000000;"/>
    <path clip-path="url(#p96066bb68a)" d="M 351.108954 76.17355 
L 392.429916 55.585866 
" style="fill:none;stroke:#000000;"/>
    <path clip-path="url(#p96066bb68a)" d="M 351.108954 76.17355 
L 337.520324 46.193253 
" style="fill:none;stroke:#000000;"/>
    <path clip-path="url(#p96066bb68a)" d="M 351.108954 76.17355 
L 398.794207 92.176446 
" style="fill:none;stroke:#000000;"/>
    <path clip-path="url(#p96066bb68a)" d="M 83.392894 104.106412 
L 39.489449 97.356088 
" style="fill:none;stroke:#000000;"/>
    <path clip-path="url(#p96066bb68a)" d="M 83.392894 104.106412 
L 22.395026 118.389649 
" style="fill:none;stroke:#000000;"/>
    <path clip-path="url(#p96066bb68a)" d="M 83.392894 104.106412 
L 59.706017 77.902559 
" style="fill:none;stroke:#000000;"/>
    <path clip-path="url(#p96066bb68a)" d="M 123.049848 44.39885 
L 105.872411 23.311254 
" style="fill:none;stroke:#000000;"/>
    <path clip-path="url(#p96066bb68a)" d="M 114.879755 237.337348 
L 82.92615 247.903645 
" style="fill:none;stroke:#000000;"/>
    <path clip-path="url(#p96066bb68a)" d="M 155.349932 290.249366 
L 143.651368 325.426118 
" style="fill:none;stroke:#000000;"/>
    <path clip-path="url(#p96066bb68a)" d="M 155.349932 290.249366 
L 117.013459 298.024262 
" style="fill:none;stroke:#000000;"/>
    <path clip-path="url(#p96066bb68a)" d="M 259.305724 298.566895 
L 240.308642 328.701694 
" style="fill:none;stroke:#000000;"/>
    <path clip-path="url(#p96066bb68a)" d="M 259.305724 298.566895 
L 292.511566 325.092375 
" style="fill:none;stroke:#000000;"/>
    <path clip-path="url(#p96066bb68a)" d="M 380.91691 257.571822 
L 375.723619 279.314866 
" style="fill:none;stroke:#000000;"/>
    <path clip-path="url(#p96066bb68a)" d="M 380.91691 257.571822 
L 408.169653 274.260078 
" style="fill:none;stroke:#000000;"/>
    <path clip-path="url(#p96066bb68a)" d="M 380.91691 257.571822 
L 416.910815 254.543853 
" style="fill:none;stroke:#000000;"/>
    <path clip-path="url(#p96066bb68a)" d="M 398.684277 211.18774 
L 435.44803 221.403434 
" style="fill:none;stroke:#000000;"/>
    <path clip-path="url(#p96066bb68a)" d="M 398.684277 211.18774 
L 438.404974 197.931072 
" style="fill:none;stroke:#000000;"/>
    <path clip-path="url(#p96066bb68a)" d="M 392.429916 55.585866 
L 423.311002 57.450409 
" style="fill:none;stroke:#000000;"/>
    <path clip-path="url(#p96066bb68a)" d="M 392.429916 55.585866 
L 424.885589 18.194467 
" style="fill:none;stroke:#000000;"/>
    <path clip-path="url(#p96066bb68a)" d="M 392.429916 55.585866 
L 391.006461 42.731055 
" style="fill:none;stroke:#000000;"/>
   </g>
   <g id="PathCollection_1">
    <defs>
     <path d="M 0 3.535534 
C 0.937635 3.535534 1.836992 3.163008 2.5 2.5 
C 3.163008 1.836992 3.535534 0.937635 3.535534 0 
C 3.535534 -0.937635 3.163008 -1.836992 2.5 -2.5 
C 1.836992 -3.163008 0.937635 -3.535534 0 -3.535534 
C -0.937635 -3.535534 -1.836992 -3.163008 -2.5 -2.5 
C -3.163008 -1.836992 -3.535534 -0.937635 -3.535534 0 
C -3.535534 0.937635 -3.163008 1.836992 -2.5 2.5 
C -1.836992 3.163008 -0.937635 3.535534 0 3.535534 
z
" id="C0_0_0d471142dd"/>
    </defs>
    <g clip-path="url(#p96066bb68a)">
     <use style="fill:#330099;stroke:#330099;" x="238.334161" xlink:href="#C0_0_0d471142dd" y="142.16631"/>
    </g>
    <g clip-path="url(#p96066bb68a)">
     <use style="fill:#d3d3d3;stroke:#d3d3d3;" x="243.926397" xlink:href="#C0_0_0d471142dd" y="166.113228"/>
    </g>
    <g clip-path="url(#p96066bb68a)">
     <use style="fill:#d3d3d3;stroke:#d3d3d3;" x="235.685557" xlink:href="#C0_0_0d471142dd" y="127.752743"/>
    </g>
    <g clip-path="url(#p96066bb68a)">
     <use style="fill:#b5a3da;stroke:#b5a3da;" x="252.521897" xlink:href="#C0_0_0d471142dd" y="210.271068"/>
    </g>
    <g clip-path="url(#p96066bb68a)">
     <use style="fill:#b5a3da;stroke:#b5a3da;" x="274.692562" xlink:href="#C0_0_0d471142dd" y="105.380847"/>
    </g>
    <g clip-path="url(#p96066bb68a)">
     <use style="fill:#b5a3da;stroke:#b5a3da;" x="172.323201" xlink:href="#C0_0_0d471142dd" y="108.64823"/>
    </g>
    <g clip-path="url(#p96066bb68a)">
     <use style="fill:#b5a3da;stroke:#b5a3da;" x="184.709791" xlink:href="#C0_0_0d471142dd" y="214.496878"/>
    </g>
    <g clip-path="url(#p96066bb68a)">
     <use style="fill:#b5a3da;stroke:#b5a3da;" x="241.752644" xlink:href="#C0_0_0d471142dd" y="231.186299"/>
    </g>
    <g clip-path="url(#p96066bb68a)">
     <use style="fill:#b5a3da;stroke:#b5a3da;" x="294.858955" xlink:href="#C0_0_0d471142dd" y="214.631254"/>
    </g>
    <g clip-path="url(#p96066bb68a)">
     <use style="fill:#b5a3da;stroke:#b5a3da;" x="260.518869" xlink:href="#C0_0_0d471142dd" y="76.600053"/>
    </g>
    <g clip-path="url(#p96066bb68a)">
     <use style="fill:#b5a3da;stroke:#b5a3da;" x="310.450021" xlink:href="#C0_0_0d471142dd" y="95.872962"/>
    </g>
    <g clip-path="url(#p96066bb68a)">
     <use style="fill:#b5a3da;stroke:#b5a3da;" x="105.103216" xlink:href="#C0_0_0d471142dd" y="107.942392"/>
    </g>
    <g clip-path="url(#p96066bb68a)">
     <use style="fill:#b5a3da;stroke:#b5a3da;" x="161.369759" xlink:href="#C0_0_0d471142dd" y="82.636874"/>
    </g>
    <g clip-path="url(#p96066bb68a)">
     <use style="fill:#b5a3da;stroke:#b5a3da;" x="144.137928" xlink:href="#C0_0_0d471142dd" y="221.773102"/>
    </g>
    <g clip-path="url(#p96066bb68a)">
     <use style="fill:#b5a3da;stroke:#b5a3da;" x="197.062898" xlink:href="#C0_0_0d471142dd" y="256.635964"/>
    </g>
    <g clip-path="url(#p96066bb68a)">
     <use style="fill:#b5a3da;stroke:#b5a3da;" x="253.800657" xlink:href="#C0_0_0d471142dd" y="264.134928"/>
    </g>
    <g clip-path="url(#p96066bb68a)">
     <use style="fill:#b5a3da;stroke:#b5a3da;" x="338.364595" xlink:href="#C0_0_0d471142dd" y="224.094731"/>
    </g>
    <g clip-path="url(#p96066bb68a)">
     <use style="fill:#b5a3da;stroke:#b5a3da;" x="257.216831" xlink:href="#C0_0_0d471142dd" y="56.297463"/>
    </g>
    <g clip-path="url(#p96066bb68a)">
     <use style="fill:#b5a3da;stroke:#b5a3da;" x="351.108954" xlink:href="#C0_0_0d471142dd" y="76.17355"/>
    </g>
    <g clip-path="url(#p96066bb68a)">
     <use style="fill:#b5a3da;stroke:#b5a3da;" x="83.392894" xlink:href="#C0_0_0d471142dd" y="104.106412"/>
    </g>
    <g clip-path="url(#p96066bb68a)">
     <use style="fill:#b5a3da;stroke:#b5a3da;" x="123.049848" xlink:href="#C0_0_0d471142dd" y="44.39885"/>
    </g>
    <g clip-path="url(#p96066bb68a)">
     <use style="fill:#b5a3da;stroke:#b5a3da;" x="166.655643" xlink:href="#C0_0_0d471142dd" y="54.653788"/>
    </g>
    <g clip-path="url(#p96066bb68a)">
     <use style="fill:#b5a3da;stroke:#b5a3da;" x="86.021398" xlink:href="#C0_0_0d471142dd" y="212.232391"/>
    </g>
    <g clip-path="url(#p96066bb68a)">
     <use style="fill:#b5a3da;stroke:#b5a3da;" x="114.879755" xlink:href="#C0_0_0d471142dd" y="237.337348"/>
    </g>
    <g clip-path="url(#p96066bb68a)">
     <use style="fill:#b5a3da;stroke:#b5a3da;" x="155.349932" xlink:href="#C0_0_0d471142dd" y="290.249366"/>
    </g>
    <g clip-path="url(#p96066bb68a)">
     <use style="fill:#b5a3da;stroke:#b5a3da;" x="259.305724" xlink:href="#C0_0_0d471142dd" y="298.566895"/>
    </g>
    <g clip-path="url(#p96066bb68a)">
     <use style="fill:#b5a3da;stroke:#b5a3da;" x="380.91691" xlink:href="#C0_0_0d471142dd" y="257.571822"/>
    </g>
    <g clip-path="url(#p96066bb68a)">
     <use style="fill:#b5a3da;stroke:#b5a3da;" x="398.684277" xlink:href="#C0_0_0d471142dd" y="211.18774"/>
    </g>
    <g clip-path="url(#p96066bb68a)">
     <use style="fill:#b5a3da;stroke:#b5a3da;" x="254.261126" xlink:href="#C0_0_0d471142dd" y="16.898306"/>
    </g>
    <g clip-path="url(#p96066bb68a)">
     <use style="fill:#b5a3da;stroke:#b5a3da;" x="392.429916" xlink:href="#C0_0_0d471142dd" y="55.585866"/>
    </g>
    <g clip-path="url(#p96066bb68a)">
     <use style="fill:#b5a3da;stroke:#b5a3da;" x="337.520324" xlink:href="#C0_0_0d471142dd" y="46.193253"/>
    </g>
    <g clip-path="url(#p96066bb68a)">
     <use style="fill:#b5a3da;stroke:#b5a3da;" x="398.794207" xlink:href="#C0_0_0d471142dd" y="92.176446"/>
    </g>
    <g clip-path="url(#p96066bb68a)">
     <use style="fill:#b5a3da;stroke:#b5a3da;" x="39.489449" xlink:href="#C0_0_0d471142dd" y="97.356088"/>
    </g>
    <g clip-path="url(#p96066bb68a)">
     <use style="fill:#b5a3da;stroke:#b5a3da;" x="22.395026" xlink:href="#C0_0_0d471142dd" y="118.389649"/>
    </g>
    <g clip-path="url(#p96066bb68a)">
     <use style="fill:#b5a3da;stroke:#b5a3da;" x="59.706017" xlink:href="#C0_0_0d471142dd" y="77.902559"/>
    </g>
    <g clip-path="url(#p96066bb68a)">
     <use style="fill:#b5a3da;stroke:#b5a3da;" x="105.872411" xlink:href="#C0_0_0d471142dd" y="23.311254"/>
    </g>
    <g clip-path="url(#p96066bb68a)">
     <use style="fill:#b5a3da;stroke:#b5a3da;" x="82.92615" xlink:href="#C0_0_0d471142dd" y="247.903645"/>
    </g>
    <g clip-path="url(#p96066bb68a)">
     <use style="fill:#b5a3da;stroke:#b5a3da;" x="143.651368" xlink:href="#C0_0_0d471142dd" y="325.426118"/>
    </g>
    <g clip-path="url(#p96066bb68a)">
     <use style="fill:#b5a3da;stroke:#b5a3da;" x="117.013459" xlink:href="#C0_0_0d471142dd" y="298.024262"/>
    </g>
    <g clip-path="url(#p96066bb68a)">
     <use style="fill:#b5a3da;stroke:#b5a3da;" x="278.985537" xlink:href="#C0_0_0d471142dd" y="270.518273"/>
    </g>
    <g clip-path="url(#p96066bb68a)">
     <use style="fill:#b5a3da;stroke:#b5a3da;" x="240.308642" xlink:href="#C0_0_0d471142dd" y="328.701694"/>
    </g>
    <g clip-path="url(#p96066bb68a)">
     <use style="fill:#b5a3da;stroke:#b5a3da;" x="292.511566" xlink:href="#C0_0_0d471142dd" y="325.092375"/>
    </g>
    <g clip-path="url(#p96066bb68a)">
     <use style="fill:#b5a3da;stroke:#b5a3da;" x="375.723619" xlink:href="#C0_0_0d471142dd" y="279.314866"/>
    </g>
    <g clip-path="url(#p96066bb68a)">
     <use style="fill:#b5a3da;stroke:#b5a3da;" x="408.169653" xlink:href="#C0_0_0d471142dd" y="274.260078"/>
    </g>
    <g clip-path="url(#p96066bb68a)">
     <use style="fill:#b5a3da;stroke:#b5a3da;" x="416.910815" xlink:href="#C0_0_0d471142dd" y="254.543853"/>
    </g>
    <g clip-path="url(#p96066bb68a)">
     <use style="fill:#b5a3da;stroke:#b5a3da;" x="435.44803" xlink:href="#C0_0_0d471142dd" y="221.403434"/>
    </g>
    <g clip-path="url(#p96066bb68a)">
     <use style="fill:#b5a3da;stroke:#b5a3da;" x="438.404974" xlink:href="#C0_0_0d471142dd" y="197.931072"/>
    </g>
    <g clip-path="url(#p96066bb68a)">
     <use style="fill:#b5a3da;stroke:#b5a3da;" x="423.311002" xlink:href="#C0_0_0d471142dd" y="57.450409"/>
    </g>
    <g clip-path="url(#p96066bb68a)">
     <use style="fill:#b5a3da;stroke:#b5a3da;" x="424.885589" xlink:href="#C0_0_0d471142dd" y="18.194467"/>
    </g>
    <g clip-path="url(#p96066bb68a)">
     <use style="fill:#b5a3da;stroke:#b5a3da;" x="391.006461" xlink:href="#C0_0_0d471142dd" y="42.731055"/>
    </g>
   </g>
   <g id="text_1">
    <g clip-path="url(#p96066bb68a)">
     <!-- m3-57 -->
     <defs>
      <path d="M 52 44.1875 
Q 55.375 50.25 60.0625 53.125 
Q 64.75 56 71.09375 56 
Q 79.640625 56 84.28125 50.015625 
Q 88.921875 44.046875 88.921875 33.015625 
L 88.921875 0 
L 79.890625 0 
L 79.890625 32.71875 
Q 79.890625 40.578125 77.09375 44.375 
Q 74.3125 48.1875 68.609375 48.1875 
Q 61.625 48.1875 57.5625 43.546875 
Q 53.515625 38.921875 53.515625 30.90625 
L 53.515625 0 
L 44.484375 0 
L 44.484375 32.71875 
Q 44.484375 40.625 41.703125 44.40625 
Q 38.921875 48.1875 33.109375 48.1875 
Q 26.21875 48.1875 22.15625 43.53125 
Q 18.109375 38.875 18.109375 30.90625 
L 18.109375 0 
L 9.078125 0 
L 9.078125 54.6875 
L 18.109375 54.6875 
L 18.109375 46.1875 
Q 21.1875 51.21875 25.484375 53.609375 
Q 29.78125 56 35.6875 56 
Q 41.65625 56 45.828125 52.96875 
Q 50 49.953125 52 44.1875 
z
" id="DejaVuSans-109"/>
      <path d="M 40.578125 39.3125 
Q 47.65625 37.796875 51.625 33 
Q 55.609375 28.21875 55.609375 21.1875 
Q 55.609375 10.40625 48.1875 4.484375 
Q 40.765625 -1.421875 27.09375 -1.421875 
Q 22.515625 -1.421875 17.65625 -0.515625 
Q 12.796875 0.390625 7.625 2.203125 
L 7.625 11.71875 
Q 11.71875 9.328125 16.59375 8.109375 
Q 21.484375 6.890625 26.8125 6.890625 
Q 36.078125 6.890625 40.9375 10.546875 
Q 45.796875 14.203125 45.796875 21.1875 
Q 45.796875 27.640625 41.28125 31.265625 
Q 36.765625 34.90625 28.71875 34.90625 
L 20.21875 34.90625 
L 20.21875 43.015625 
L 29.109375 43.015625 
Q 36.375 43.015625 40.234375 45.921875 
Q 44.09375 48.828125 44.09375 54.296875 
Q 44.09375 59.90625 40.109375 62.90625 
Q 36.140625 65.921875 28.71875 65.921875 
Q 24.65625 65.921875 20.015625 65.03125 
Q 15.375 64.15625 9.8125 62.3125 
L 9.8125 71.09375 
Q 15.4375 72.65625 20.34375 73.4375 
Q 25.25 74.21875 29.59375 74.21875 
Q 40.828125 74.21875 47.359375 69.109375 
Q 53.90625 64.015625 53.90625 55.328125 
Q 53.90625 49.265625 50.4375 45.09375 
Q 46.96875 40.921875 40.578125 39.3125 
z
" id="DejaVuSans-51"/>
      <path d="M 4.890625 31.390625 
L 31.203125 31.390625 
L 31.203125 23.390625 
L 4.890625 23.390625 
z
" id="DejaVuSans-45"/>
      <path d="M 10.796875 72.90625 
L 49.515625 72.90625 
L 49.515625 64.59375 
L 19.828125 64.59375 
L 19.828125 46.734375 
Q 21.96875 47.46875 24.109375 47.828125 
Q 26.265625 48.1875 28.421875 48.1875 
Q 40.625 48.1875 47.75 41.5 
Q 54.890625 34.8125 54.890625 23.390625 
Q 54.890625 11.625 47.5625 5.09375 
Q 40.234375 -1.421875 26.90625 -1.421875 
Q 22.3125 -1.421875 17.546875 -0.640625 
Q 12.796875 0.140625 7.71875 1.703125 
L 7.71875 11.625 
Q 12.109375 9.234375 16.796875 8.0625 
Q 21.484375 6.890625 26.703125 6.890625 
Q 35.15625 6.890625 40.078125 11.328125 
Q 45.015625 15.765625 45.015625 23.390625 
Q 45.015625 31 40.078125 35.4375 
Q 35.15625 39.890625 26.703125 39.890625 
Q 22.75 39.890625 18.8125 39.015625 
Q 14.890625 38.140625 10.796875 36.28125 
z
" id="DejaVuSans-53"/>
      <path d="M 8.203125 72.90625 
L 55.078125 72.90625 
L 55.078125 68.703125 
L 28.609375 0 
L 18.3125 0 
L 43.21875 64.59375 
L 8.203125 64.59375 
z
" id="DejaVuSans-55"/>
     </defs>
     <g style="fill:#ffffff;" transform="translate(235.090567 142.718185)scale(0.02 -0.02)">
      <use xlink:href="#DejaVuSans-109"/>
      <use x="97.412109" xlink:href="#DejaVuSans-51"/>
      <use x="161.035156" xlink:href="#DejaVuSans-45"/>
      <use x="197.119141" xlink:href="#DejaVuSans-53"/>
      <use x="260.742188" xlink:href="#DejaVuSans-55"/>
     </g>
    </g>
   </g>
   <g id="text_2">
    <g clip-path="url(#p96066bb68a)">
     <!-- m3-48 -->
     <defs>
      <path d="M 37.796875 64.3125 
L 12.890625 25.390625 
L 37.796875 25.390625 
z
M 35.203125 72.90625 
L 47.609375 72.90625 
L 47.609375 25.390625 
L 58.015625 25.390625 
L 58.015625 17.1875 
L 47.609375 17.1875 
L 47.609375 0 
L 37.796875 0 
L 37.796875 17.1875 
L 4.890625 17.1875 
L 4.890625 26.703125 
z
" id="DejaVuSans-52"/>
      <path d="M 31.78125 34.625 
Q 24.75 34.625 20.71875 30.859375 
Q 16.703125 27.09375 16.703125 20.515625 
Q 16.703125 13.921875 20.71875 10.15625 
Q 24.75 6.390625 31.78125 6.390625 
Q 38.8125 6.390625 42.859375 10.171875 
Q 46.921875 13.96875 46.921875 20.515625 
Q 46.921875 27.09375 42.890625 30.859375 
Q 38.875 34.625 31.78125 34.625 
z
M 21.921875 38.8125 
Q 15.578125 40.375 12.03125 44.71875 
Q 8.5 49.078125 8.5 55.328125 
Q 8.5 64.0625 14.71875 69.140625 
Q 20.953125 74.21875 31.78125 74.21875 
Q 42.671875 74.21875 48.875 69.140625 
Q 55.078125 64.0625 55.078125 55.328125 
Q 55.078125 49.078125 51.53125 44.71875 
Q 48 40.375 41.703125 38.8125 
Q 48.828125 37.15625 52.796875 32.3125 
Q 56.78125 27.484375 56.78125 20.515625 
Q 56.78125 9.90625 50.3125 4.234375 
Q 43.84375 -1.421875 31.78125 -1.421875 
Q 19.734375 -1.421875 13.25 4.234375 
Q 6.78125 9.90625 6.78125 20.515625 
Q 6.78125 27.484375 10.78125 32.3125 
Q 14.796875 37.15625 21.921875 38.8125 
z
M 18.3125 54.390625 
Q 18.3125 48.734375 21.84375 45.5625 
Q 25.390625 42.390625 31.78125 42.390625 
Q 38.140625 42.390625 41.71875 45.5625 
Q 45.3125 48.734375 45.3125 54.390625 
Q 45.3125 60.0625 41.71875 63.234375 
Q 38.140625 66.40625 31.78125 66.40625 
Q 25.390625 66.40625 21.84375 63.234375 
Q 18.3125 60.0625 18.3125 54.390625 
z
" id="DejaVuSans-56"/>
     </defs>
     <g style="fill:#ffffff;" transform="translate(240.682803 166.665103)scale(0.02 -0.02)">
      <use xlink:href="#DejaVuSans-109"/>
      <use x="97.412109" xlink:href="#DejaVuSans-51"/>
      <use x="161.035156" xlink:href="#DejaVuSans-45"/>
      <use x="197.119141" xlink:href="#DejaVuSans-52"/>
      <use x="260.742188" xlink:href="#DejaVuSans-56"/>
     </g>
    </g>
   </g>
   <g id="text_3">
    <g clip-path="url(#p96066bb68a)">
     <!-- m3-56 -->
     <defs>
      <path d="M 33.015625 40.375 
Q 26.375 40.375 22.484375 35.828125 
Q 18.609375 31.296875 18.609375 23.390625 
Q 18.609375 15.53125 22.484375 10.953125 
Q 26.375 6.390625 33.015625 6.390625 
Q 39.65625 6.390625 43.53125 10.953125 
Q 47.40625 15.53125 47.40625 23.390625 
Q 47.40625 31.296875 43.53125 35.828125 
Q 39.65625 40.375 33.015625 40.375 
z
M 52.59375 71.296875 
L 52.59375 62.3125 
Q 48.875 64.0625 45.09375 64.984375 
Q 41.3125 65.921875 37.59375 65.921875 
Q 27.828125 65.921875 22.671875 59.328125 
Q 17.53125 52.734375 16.796875 39.40625 
Q 19.671875 43.65625 24.015625 45.921875 
Q 28.375 48.1875 33.59375 48.1875 
Q 44.578125 48.1875 50.953125 41.515625 
Q 57.328125 34.859375 57.328125 23.390625 
Q 57.328125 12.15625 50.6875 5.359375 
Q 44.046875 -1.421875 33.015625 -1.421875 
Q 20.359375 -1.421875 13.671875 8.265625 
Q 6.984375 17.96875 6.984375 36.375 
Q 6.984375 53.65625 15.1875 63.9375 
Q 23.390625 74.21875 37.203125 74.21875 
Q 40.921875 74.21875 44.703125 73.484375 
Q 48.484375 72.75 52.59375 71.296875 
z
" id="DejaVuSans-54"/>
     </defs>
     <g style="fill:#ffffff;" transform="translate(232.441963 128.304618)scale(0.02 -0.02)">
      <use xlink:href="#DejaVuSans-109"/>
      <use x="97.412109" xlink:href="#DejaVuSans-51"/>
      <use x="161.035156" xlink:href="#DejaVuSans-45"/>
      <use x="197.119141" xlink:href="#DejaVuSans-53"/>
      <use x="260.742188" xlink:href="#DejaVuSans-54"/>
     </g>
    </g>
   </g>
   <g id="text_4">
    <g clip-path="url(#p96066bb68a)">
     <!-- m3-94 -->
     <defs>
      <path d="M 10.984375 1.515625 
L 10.984375 10.5 
Q 14.703125 8.734375 18.5 7.8125 
Q 22.3125 6.890625 25.984375 6.890625 
Q 35.75 6.890625 40.890625 13.453125 
Q 46.046875 20.015625 46.78125 33.40625 
Q 43.953125 29.203125 39.59375 26.953125 
Q 35.25 24.703125 29.984375 24.703125 
Q 19.046875 24.703125 12.671875 31.3125 
Q 6.296875 37.9375 6.296875 49.421875 
Q 6.296875 60.640625 12.9375 67.421875 
Q 19.578125 74.21875 30.609375 74.21875 
Q 43.265625 74.21875 49.921875 64.515625 
Q 56.59375 54.828125 56.59375 36.375 
Q 56.59375 19.140625 48.40625 8.859375 
Q 40.234375 -1.421875 26.421875 -1.421875 
Q 22.703125 -1.421875 18.890625 -0.6875 
Q 15.09375 0.046875 10.984375 1.515625 
z
M 30.609375 32.421875 
Q 37.25 32.421875 41.125 36.953125 
Q 45.015625 41.5 45.015625 49.421875 
Q 45.015625 57.28125 41.125 61.84375 
Q 37.25 66.40625 30.609375 66.40625 
Q 23.96875 66.40625 20.09375 61.84375 
Q 16.21875 57.28125 16.21875 49.421875 
Q 16.21875 41.5 20.09375 36.953125 
Q 23.96875 32.421875 30.609375 32.421875 
z
" id="DejaVuSans-57"/>
     </defs>
     <g style="fill:#ffffff;" transform="translate(249.278304 210.822943)scale(0.02 -0.02)">
      <use xlink:href="#DejaVuSans-109"/>
      <use x="97.412109" xlink:href="#DejaVuSans-51"/>
      <use x="161.035156" xlink:href="#DejaVuSans-45"/>
      <use x="197.119141" xlink:href="#DejaVuSans-57"/>
      <use x="260.742188" xlink:href="#DejaVuSans-52"/>
     </g>
    </g>
   </g>
   <g id="text_5">
    <g clip-path="url(#p96066bb68a)">
     <!-- m3-54 -->
     <g style="fill:#ffffff;" transform="translate(271.448968 105.932722)scale(0.02 -0.02)">
      <use xlink:href="#DejaVuSans-109"/>
      <use x="97.412109" xlink:href="#DejaVuSans-51"/>
      <use x="161.035156" xlink:href="#DejaVuSans-45"/>
      <use x="197.119141" xlink:href="#DejaVuSans-53"/>
      <use x="260.742188" xlink:href="#DejaVuSans-52"/>
     </g>
    </g>
   </g>
   <g id="text_6">
    <g clip-path="url(#p96066bb68a)">
     <!-- m3-116 -->
     <defs>
      <path d="M 12.40625 8.296875 
L 28.515625 8.296875 
L 28.515625 63.921875 
L 10.984375 60.40625 
L 10.984375 69.390625 
L 28.421875 72.90625 
L 38.28125 72.90625 
L 38.28125 8.296875 
L 54.390625 8.296875 
L 54.390625 0 
L 12.40625 0 
z
" id="DejaVuSans-49"/>
     </defs>
     <g style="fill:#ffffff;" transform="translate(168.443357 109.200105)scale(0.02 -0.02)">
      <use xlink:href="#DejaVuSans-109"/>
      <use x="97.412109" xlink:href="#DejaVuSans-51"/>
      <use x="161.035156" xlink:href="#DejaVuSans-45"/>
      <use x="197.119141" xlink:href="#DejaVuSans-49"/>
      <use x="260.742188" xlink:href="#DejaVuSans-49"/>
      <use x="324.365234" xlink:href="#DejaVuSans-54"/>
     </g>
    </g>
   </g>
   <g id="text_7">
    <g clip-path="url(#p96066bb68a)">
     <!-- m3-117 -->
     <g style="fill:#ffffff;" transform="translate(180.829947 215.048753)scale(0.02 -0.02)">
      <use xlink:href="#DejaVuSans-109"/>
      <use x="97.412109" xlink:href="#DejaVuSans-51"/>
      <use x="161.035156" xlink:href="#DejaVuSans-45"/>
      <use x="197.119141" xlink:href="#DejaVuSans-49"/>
      <use x="260.742188" xlink:href="#DejaVuSans-49"/>
      <use x="324.365234" xlink:href="#DejaVuSans-55"/>
     </g>
    </g>
   </g>
   <g id="text_8">
    <g clip-path="url(#p96066bb68a)">
     <!-- m3-95 -->
     <g style="fill:#ffffff;" transform="translate(238.50905 231.738174)scale(0.02 -0.02)">
      <use xlink:href="#DejaVuSans-109"/>
      <use x="97.412109" xlink:href="#DejaVuSans-51"/>
      <use x="161.035156" xlink:href="#DejaVuSans-45"/>
      <use x="197.119141" xlink:href="#DejaVuSans-57"/>
      <use x="260.742188" xlink:href="#DejaVuSans-53"/>
     </g>
    </g>
   </g>
   <g id="text_9">
    <g clip-path="url(#p96066bb68a)">
     <!-- m3-98 -->
     <g style="fill:#ffffff;" transform="translate(291.615361 215.183129)scale(0.02 -0.02)">
      <use xlink:href="#DejaVuSans-109"/>
      <use x="97.412109" xlink:href="#DejaVuSans-51"/>
      <use x="161.035156" xlink:href="#DejaVuSans-45"/>
      <use x="197.119141" xlink:href="#DejaVuSans-57"/>
      <use x="260.742188" xlink:href="#DejaVuSans-56"/>
     </g>
    </g>
   </g>
   <g id="text_10">
    <g clip-path="url(#p96066bb68a)">
     <!-- m3-12 -->
     <defs>
      <path d="M 19.1875 8.296875 
L 53.609375 8.296875 
L 53.609375 0 
L 7.328125 0 
L 7.328125 8.296875 
Q 12.9375 14.109375 22.625 23.890625 
Q 32.328125 33.6875 34.8125 36.53125 
Q 39.546875 41.84375 41.421875 45.53125 
Q 43.3125 49.21875 43.3125 52.78125 
Q 43.3125 58.59375 39.234375 62.25 
Q 35.15625 65.921875 28.609375 65.921875 
Q 23.96875 65.921875 18.8125 64.3125 
Q 13.671875 62.703125 7.8125 59.421875 
L 7.8125 69.390625 
Q 13.765625 71.78125 18.9375 73 
Q 24.125 74.21875 28.421875 74.21875 
Q 39.75 74.21875 46.484375 68.546875 
Q 53.21875 62.890625 53.21875 53.421875 
Q 53.21875 48.921875 51.53125 44.890625 
Q 49.859375 40.875 45.40625 35.40625 
Q 44.1875 33.984375 37.640625 27.21875 
Q 31.109375 20.453125 19.1875 8.296875 
z
" id="DejaVuSans-50"/>
     </defs>
     <g style="fill:#ffffff;" transform="translate(257.275276 77.151928)scale(0.02 -0.02)">
      <use xlink:href="#DejaVuSans-109"/>
      <use x="97.412109" xlink:href="#DejaVuSans-51"/>
      <use x="161.035156" xlink:href="#DejaVuSans-45"/>
      <use x="197.119141" xlink:href="#DejaVuSans-49"/>
      <use x="260.742188" xlink:href="#DejaVuSans-50"/>
     </g>
    </g>
   </g>
   <g id="text_11">
    <g clip-path="url(#p96066bb68a)">
     <!-- m3-64 -->
     <g style="fill:#ffffff;" transform="translate(307.206428 96.424837)scale(0.02 -0.02)">
      <use xlink:href="#DejaVuSans-109"/>
      <use x="97.412109" xlink:href="#DejaVuSans-51"/>
      <use x="161.035156" xlink:href="#DejaVuSans-45"/>
      <use x="197.119141" xlink:href="#DejaVuSans-54"/>
      <use x="260.742188" xlink:href="#DejaVuSans-52"/>
     </g>
    </g>
   </g>
   <g id="text_12">
    <g clip-path="url(#p96066bb68a)">
     <!-- m3-63 -->
     <g style="fill:#ffffff;" transform="translate(101.859623 108.494267)scale(0.02 -0.02)">
      <use xlink:href="#DejaVuSans-109"/>
      <use x="97.412109" xlink:href="#DejaVuSans-51"/>
      <use x="161.035156" xlink:href="#DejaVuSans-45"/>
      <use x="197.119141" xlink:href="#DejaVuSans-54"/>
      <use x="260.742188" xlink:href="#DejaVuSans-51"/>
     </g>
    </g>
   </g>
   <g id="text_13">
    <g clip-path="url(#p96066bb68a)">
     <!-- m3-47 -->
     <g style="fill:#ffffff;" transform="translate(158.126166 83.188749)scale(0.02 -0.02)">
      <use xlink:href="#DejaVuSans-109"/>
      <use x="97.412109" xlink:href="#DejaVuSans-51"/>
      <use x="161.035156" xlink:href="#DejaVuSans-45"/>
      <use x="197.119141" xlink:href="#DejaVuSans-52"/>
      <use x="260.742188" xlink:href="#DejaVuSans-55"/>
     </g>
    </g>
   </g>
   <g id="text_14">
    <g clip-path="url(#p96066bb68a)">
     <!-- m3-58 -->
     <g style="fill:#ffffff;" transform="translate(140.894334 222.324977)scale(0.02 -0.02)">
      <use xlink:href="#DejaVuSans-109"/>
      <use x="97.412109" xlink:href="#DejaVuSans-51"/>
      <use x="161.035156" xlink:href="#DejaVuSans-45"/>
      <use x="197.119141" xlink:href="#DejaVuSans-53"/>
      <use x="260.742188" xlink:href="#DejaVuSans-56"/>
     </g>
    </g>
   </g>
   <g id="text_15">
    <g clip-path="url(#p96066bb68a)">
     <!-- m3-213 -->
     <g style="fill:#ffffff;" transform="translate(193.183054 257.187839)scale(0.02 -0.02)">
      <use xlink:href="#DejaVuSans-109"/>
      <use x="97.412109" xlink:href="#DejaVuSans-51"/>
      <use x="161.035156" xlink:href="#DejaVuSans-45"/>
      <use x="197.119141" xlink:href="#DejaVuSans-50"/>
      <use x="260.742188" xlink:href="#DejaVuSans-49"/>
      <use x="324.365234" xlink:href="#DejaVuSans-51"/>
     </g>
    </g>
   </g>
   <g id="text_16">
    <g clip-path="url(#p96066bb68a)">
     <!-- m3-219 -->
     <g style="fill:#ffffff;" transform="translate(249.920814 264.686803)scale(0.02 -0.02)">
      <use xlink:href="#DejaVuSans-109"/>
      <use x="97.412109" xlink:href="#DejaVuSans-51"/>
      <use x="161.035156" xlink:href="#DejaVuSans-45"/>
      <use x="197.119141" xlink:href="#DejaVuSans-50"/>
      <use x="260.742188" xlink:href="#DejaVuSans-49"/>
      <use x="324.365234" xlink:href="#DejaVuSans-57"/>
     </g>
    </g>
   </g>
   <g id="text_17">
    <g clip-path="url(#p96066bb68a)">
     <!-- m3-239 -->
     <g style="fill:#ffffff;" transform="translate(334.484752 224.646606)scale(0.02 -0.02)">
      <use xlink:href="#DejaVuSans-109"/>
      <use x="97.412109" xlink:href="#DejaVuSans-51"/>
      <use x="161.035156" xlink:href="#DejaVuSans-45"/>
      <use x="197.119141" xlink:href="#DejaVuSans-50"/>
      <use x="260.742188" xlink:href="#DejaVuSans-51"/>
      <use x="324.365234" xlink:href="#DejaVuSans-57"/>
     </g>
    </g>
   </g>
   <g id="text_18">
    <g clip-path="url(#p96066bb68a)">
     <!-- m3-5 -->
     <g style="fill:#ffffff;" transform="translate(254.609487 56.849338)scale(0.02 -0.02)">
      <use xlink:href="#DejaVuSans-109"/>
      <use x="97.412109" xlink:href="#DejaVuSans-51"/>
      <use x="161.035156" xlink:href="#DejaVuSans-45"/>
      <use x="197.119141" xlink:href="#DejaVuSans-53"/>
     </g>
    </g>
   </g>
   <g id="text_19">
    <g clip-path="url(#p96066bb68a)">
     <!-- m3-68 -->
     <g style="fill:#ffffff;" transform="translate(347.865361 76.725425)scale(0.02 -0.02)">
      <use xlink:href="#DejaVuSans-109"/>
      <use x="97.412109" xlink:href="#DejaVuSans-51"/>
      <use x="161.035156" xlink:href="#DejaVuSans-45"/>
      <use x="197.119141" xlink:href="#DejaVuSans-54"/>
      <use x="260.742188" xlink:href="#DejaVuSans-56"/>
     </g>
    </g>
   </g>
   <g id="text_20">
    <g clip-path="url(#p96066bb68a)">
     <!-- m3-66 -->
     <g style="fill:#ffffff;" transform="translate(80.1493 104.658287)scale(0.02 -0.02)">
      <use xlink:href="#DejaVuSans-109"/>
      <use x="97.412109" xlink:href="#DejaVuSans-51"/>
      <use x="161.035156" xlink:href="#DejaVuSans-45"/>
      <use x="197.119141" xlink:href="#DejaVuSans-54"/>
      <use x="260.742188" xlink:href="#DejaVuSans-54"/>
     </g>
    </g>
   </g>
   <g id="text_21">
    <g clip-path="url(#p96066bb68a)">
     <!-- m3-112 -->
     <g style="fill:#ffffff;" transform="translate(119.170004 44.950725)scale(0.02 -0.02)">
      <use xlink:href="#DejaVuSans-109"/>
      <use x="97.412109" xlink:href="#DejaVuSans-51"/>
      <use x="161.035156" xlink:href="#DejaVuSans-45"/>
      <use x="197.119141" xlink:href="#DejaVuSans-49"/>
      <use x="260.742188" xlink:href="#DejaVuSans-49"/>
      <use x="324.365234" xlink:href="#DejaVuSans-50"/>
     </g>
    </g>
   </g>
   <g id="text_22">
    <g clip-path="url(#p96066bb68a)">
     <!-- m3-55 -->
     <g style="fill:#ffffff;" transform="translate(163.412049 55.205663)scale(0.02 -0.02)">
      <use xlink:href="#DejaVuSans-109"/>
      <use x="97.412109" xlink:href="#DejaVuSans-51"/>
      <use x="161.035156" xlink:href="#DejaVuSans-45"/>
      <use x="197.119141" xlink:href="#DejaVuSans-53"/>
      <use x="260.742188" xlink:href="#DejaVuSans-53"/>
     </g>
    </g>
   </g>
   <g id="text_23">
    <g clip-path="url(#p96066bb68a)">
     <!-- m3-6 -->
     <g style="fill:#ffffff;" transform="translate(83.414054 212.784266)scale(0.02 -0.02)">
      <use xlink:href="#DejaVuSans-109"/>
      <use x="97.412109" xlink:href="#DejaVuSans-51"/>
      <use x="161.035156" xlink:href="#DejaVuSans-45"/>
      <use x="197.119141" xlink:href="#DejaVuSans-54"/>
     </g>
    </g>
   </g>
   <g id="text_24">
    <g clip-path="url(#p96066bb68a)">
     <!-- m3-225 -->
     <g style="fill:#ffffff;" transform="translate(110.999912 237.889223)scale(0.02 -0.02)">
      <use xlink:href="#DejaVuSans-109"/>
      <use x="97.412109" xlink:href="#DejaVuSans-51"/>
      <use x="161.035156" xlink:href="#DejaVuSans-45"/>
      <use x="197.119141" xlink:href="#DejaVuSans-50"/>
      <use x="260.742188" xlink:href="#DejaVuSans-50"/>
      <use x="324.365234" xlink:href="#DejaVuSans-53"/>
     </g>
    </g>
   </g>
   <g id="text_25">
    <g clip-path="url(#p96066bb68a)">
     <!-- m3-217 -->
     <g style="fill:#ffffff;" transform="translate(151.470088 290.801241)scale(0.02 -0.02)">
      <use xlink:href="#DejaVuSans-109"/>
      <use x="97.412109" xlink:href="#DejaVuSans-51"/>
      <use x="161.035156" xlink:href="#DejaVuSans-45"/>
      <use x="197.119141" xlink:href="#DejaVuSans-50"/>
      <use x="260.742188" xlink:href="#DejaVuSans-49"/>
      <use x="324.365234" xlink:href="#DejaVuSans-55"/>
     </g>
    </g>
   </g>
   <g id="text_26">
    <g clip-path="url(#p96066bb68a)">
     <!-- m3-194 -->
     <g style="fill:#ffffff;" transform="translate(255.42588 299.11877)scale(0.02 -0.02)">
      <use xlink:href="#DejaVuSans-109"/>
      <use x="97.412109" xlink:href="#DejaVuSans-51"/>
      <use x="161.035156" xlink:href="#DejaVuSans-45"/>
      <use x="197.119141" xlink:href="#DejaVuSans-49"/>
      <use x="260.742188" xlink:href="#DejaVuSans-57"/>
      <use x="324.365234" xlink:href="#DejaVuSans-52"/>
     </g>
    </g>
   </g>
   <g id="text_27">
    <g clip-path="url(#p96066bb68a)">
     <!-- m3-248 -->
     <g style="fill:#ffffff;" transform="translate(377.037066 258.123697)scale(0.02 -0.02)">
      <use xlink:href="#DejaVuSans-109"/>
      <use x="97.412109" xlink:href="#DejaVuSans-51"/>
      <use x="161.035156" xlink:href="#DejaVuSans-45"/>
      <use x="197.119141" xlink:href="#DejaVuSans-50"/>
      <use x="260.742188" xlink:href="#DejaVuSans-52"/>
      <use x="324.365234" xlink:href="#DejaVuSans-56"/>
     </g>
    </g>
   </g>
   <g id="text_28">
    <g clip-path="url(#p96066bb68a)">
     <!-- m3-199 -->
     <g style="fill:#ffffff;" transform="translate(394.804433 211.739615)scale(0.02 -0.02)">
      <use xlink:href="#DejaVuSans-109"/>
      <use x="97.412109" xlink:href="#DejaVuSans-51"/>
      <use x="161.035156" xlink:href="#DejaVuSans-45"/>
      <use x="197.119141" xlink:href="#DejaVuSans-49"/>
      <use x="260.742188" xlink:href="#DejaVuSans-57"/>
      <use x="324.365234" xlink:href="#DejaVuSans-57"/>
     </g>
    </g>
   </g>
   <g id="text_29">
    <g clip-path="url(#p96066bb68a)">
     <!-- m3-3 -->
     <g style="fill:#ffffff;" transform="translate(251.653782 17.450181)scale(0.02 -0.02)">
      <use xlink:href="#DejaVuSans-109"/>
      <use x="97.412109" xlink:href="#DejaVuSans-51"/>
      <use x="161.035156" xlink:href="#DejaVuSans-45"/>
      <use x="197.119141" xlink:href="#DejaVuSans-51"/>
     </g>
    </g>
   </g>
   <g id="text_30">
    <g clip-path="url(#p96066bb68a)">
     <!-- m3-77 -->
     <g style="fill:#ffffff;" transform="translate(389.186322 56.137741)scale(0.02 -0.02)">
      <use xlink:href="#DejaVuSans-109"/>
      <use x="97.412109" xlink:href="#DejaVuSans-51"/>
      <use x="161.035156" xlink:href="#DejaVuSans-45"/>
      <use x="197.119141" xlink:href="#DejaVuSans-55"/>
      <use x="260.742188" xlink:href="#DejaVuSans-55"/>
     </g>
    </g>
   </g>
   <g id="text_31">
    <g clip-path="url(#p96066bb68a)">
     <!-- m3-76 -->
     <g style="fill:#ffffff;" transform="translate(334.27673 46.745128)scale(0.02 -0.02)">
      <use xlink:href="#DejaVuSans-109"/>
      <use x="97.412109" xlink:href="#DejaVuSans-51"/>
      <use x="161.035156" xlink:href="#DejaVuSans-45"/>
      <use x="197.119141" xlink:href="#DejaVuSans-55"/>
      <use x="260.742188" xlink:href="#DejaVuSans-54"/>
     </g>
    </g>
   </g>
   <g id="text_32">
    <g clip-path="url(#p96066bb68a)">
     <!-- m3-78 -->
     <g style="fill:#ffffff;" transform="translate(395.550613 92.728321)scale(0.02 -0.02)">
      <use xlink:href="#DejaVuSans-109"/>
      <use x="97.412109" xlink:href="#DejaVuSans-51"/>
      <use x="161.035156" xlink:href="#DejaVuSans-45"/>
      <use x="197.119141" xlink:href="#DejaVuSans-55"/>
      <use x="260.742188" xlink:href="#DejaVuSans-56"/>
     </g>
    </g>
   </g>
   <g id="text_33">
    <g clip-path="url(#p96066bb68a)">
     <!-- m3-120 -->
     <defs>
      <path d="M 31.78125 66.40625 
Q 24.171875 66.40625 20.328125 58.90625 
Q 16.5 51.421875 16.5 36.375 
Q 16.5 21.390625 20.328125 13.890625 
Q 24.171875 6.390625 31.78125 6.390625 
Q 39.453125 6.390625 43.28125 13.890625 
Q 47.125 21.390625 47.125 36.375 
Q 47.125 51.421875 43.28125 58.90625 
Q 39.453125 66.40625 31.78125 66.40625 
z
M 31.78125 74.21875 
Q 44.046875 74.21875 50.515625 64.515625 
Q 56.984375 54.828125 56.984375 36.375 
Q 56.984375 17.96875 50.515625 8.265625 
Q 44.046875 -1.421875 31.78125 -1.421875 
Q 19.53125 -1.421875 13.0625 8.265625 
Q 6.59375 17.96875 6.59375 36.375 
Q 6.59375 54.828125 13.0625 64.515625 
Q 19.53125 74.21875 31.78125 74.21875 
z
" id="DejaVuSans-48"/>
     </defs>
     <g style="fill:#ffffff;" transform="translate(35.609605 97.907963)scale(0.02 -0.02)">
      <use xlink:href="#DejaVuSans-109"/>
      <use x="97.412109" xlink:href="#DejaVuSans-51"/>
      <use x="161.035156" xlink:href="#DejaVuSans-45"/>
      <use x="197.119141" xlink:href="#DejaVuSans-49"/>
      <use x="260.742188" xlink:href="#DejaVuSans-50"/>
      <use x="324.365234" xlink:href="#DejaVuSans-48"/>
     </g>
    </g>
   </g>
   <g id="text_34">
    <g clip-path="url(#p96066bb68a)">
     <!-- m3-121 -->
     <g style="fill:#ffffff;" transform="translate(18.515183 118.941524)scale(0.02 -0.02)">
      <use xlink:href="#DejaVuSans-109"/>
      <use x="97.412109" xlink:href="#DejaVuSans-51"/>
      <use x="161.035156" xlink:href="#DejaVuSans-45"/>
      <use x="197.119141" xlink:href="#DejaVuSans-49"/>
      <use x="260.742188" xlink:href="#DejaVuSans-50"/>
      <use x="324.365234" xlink:href="#DejaVuSans-49"/>
     </g>
    </g>
   </g>
   <g id="text_35">
    <g clip-path="url(#p96066bb68a)">
     <!-- m3-71 -->
     <g style="fill:#ffffff;" transform="translate(56.462424 78.454434)scale(0.02 -0.02)">
      <use xlink:href="#DejaVuSans-109"/>
      <use x="97.412109" xlink:href="#DejaVuSans-51"/>
      <use x="161.035156" xlink:href="#DejaVuSans-45"/>
      <use x="197.119141" xlink:href="#DejaVuSans-55"/>
      <use x="260.742188" xlink:href="#DejaVuSans-49"/>
     </g>
    </g>
   </g>
   <g id="text_36">
    <g clip-path="url(#p96066bb68a)">
     <!-- m3-118 -->
     <g style="fill:#ffffff;" transform="translate(101.992567 23.863129)scale(0.02 -0.02)">
      <use xlink:href="#DejaVuSans-109"/>
      <use x="97.412109" xlink:href="#DejaVuSans-51"/>
      <use x="161.035156" xlink:href="#DejaVuSans-45"/>
      <use x="197.119141" xlink:href="#DejaVuSans-49"/>
      <use x="260.742188" xlink:href="#DejaVuSans-49"/>
      <use x="324.365234" xlink:href="#DejaVuSans-56"/>
     </g>
    </g>
   </g>
   <g id="text_37">
    <g clip-path="url(#p96066bb68a)">
     <!-- m3-90 -->
     <g style="fill:#ffffff;" transform="translate(79.682556 248.45552)scale(0.02 -0.02)">
      <use xlink:href="#DejaVuSans-109"/>
      <use x="97.412109" xlink:href="#DejaVuSans-51"/>
      <use x="161.035156" xlink:href="#DejaVuSans-45"/>
      <use x="197.119141" xlink:href="#DejaVuSans-57"/>
      <use x="260.742188" xlink:href="#DejaVuSans-48"/>
     </g>
    </g>
   </g>
   <g id="text_38">
    <g clip-path="url(#p96066bb68a)">
     <!-- m3-172 -->
     <g style="fill:#ffffff;" transform="translate(139.771524 325.977993)scale(0.02 -0.02)">
      <use xlink:href="#DejaVuSans-109"/>
      <use x="97.412109" xlink:href="#DejaVuSans-51"/>
      <use x="161.035156" xlink:href="#DejaVuSans-45"/>
      <use x="197.119141" xlink:href="#DejaVuSans-49"/>
      <use x="260.742188" xlink:href="#DejaVuSans-55"/>
      <use x="324.365234" xlink:href="#DejaVuSans-50"/>
     </g>
    </g>
   </g>
   <g id="text_39">
    <g clip-path="url(#p96066bb68a)">
     <!-- m3-195 -->
     <g style="fill:#ffffff;" transform="translate(113.133615 298.576137)scale(0.02 -0.02)">
      <use xlink:href="#DejaVuSans-109"/>
      <use x="97.412109" xlink:href="#DejaVuSans-51"/>
      <use x="161.035156" xlink:href="#DejaVuSans-45"/>
      <use x="197.119141" xlink:href="#DejaVuSans-49"/>
      <use x="260.742188" xlink:href="#DejaVuSans-57"/>
      <use x="324.365234" xlink:href="#DejaVuSans-53"/>
     </g>
    </g>
   </g>
   <g id="text_40">
    <g clip-path="url(#p96066bb68a)">
     <!-- m3-234 -->
     <g style="fill:#ffffff;" transform="translate(275.105693 271.070148)scale(0.02 -0.02)">
      <use xlink:href="#DejaVuSans-109"/>
      <use x="97.412109" xlink:href="#DejaVuSans-51"/>
      <use x="161.035156" xlink:href="#DejaVuSans-45"/>
      <use x="197.119141" xlink:href="#DejaVuSans-50"/>
      <use x="260.742188" xlink:href="#DejaVuSans-51"/>
      <use x="324.365234" xlink:href="#DejaVuSans-52"/>
     </g>
    </g>
   </g>
   <g id="text_41">
    <g clip-path="url(#p96066bb68a)">
     <!-- m3-154 -->
     <g style="fill:#ffffff;" transform="translate(236.428798 329.253569)scale(0.02 -0.02)">
      <use xlink:href="#DejaVuSans-109"/>
      <use x="97.412109" xlink:href="#DejaVuSans-51"/>
      <use x="161.035156" xlink:href="#DejaVuSans-45"/>
      <use x="197.119141" xlink:href="#DejaVuSans-49"/>
      <use x="260.742188" xlink:href="#DejaVuSans-53"/>
      <use x="324.365234" xlink:href="#DejaVuSans-52"/>
     </g>
    </g>
   </g>
   <g id="text_42">
    <g clip-path="url(#p96066bb68a)">
     <!-- m3-170 -->
     <g style="fill:#ffffff;" transform="translate(288.631722 325.64425)scale(0.02 -0.02)">
      <use xlink:href="#DejaVuSans-109"/>
      <use x="97.412109" xlink:href="#DejaVuSans-51"/>
      <use x="161.035156" xlink:href="#DejaVuSans-45"/>
      <use x="197.119141" xlink:href="#DejaVuSans-49"/>
      <use x="260.742188" xlink:href="#DejaVuSans-55"/>
      <use x="324.365234" xlink:href="#DejaVuSans-48"/>
     </g>
    </g>
   </g>
   <g id="text_43">
    <g clip-path="url(#p96066bb68a)">
     <!-- m3-255 -->
     <g style="fill:#ffffff;" transform="translate(371.843775 279.866741)scale(0.02 -0.02)">
      <use xlink:href="#DejaVuSans-109"/>
      <use x="97.412109" xlink:href="#DejaVuSans-51"/>
      <use x="161.035156" xlink:href="#DejaVuSans-45"/>
      <use x="197.119141" xlink:href="#DejaVuSans-50"/>
      <use x="260.742188" xlink:href="#DejaVuSans-53"/>
      <use x="324.365234" xlink:href="#DejaVuSans-53"/>
     </g>
    </g>
   </g>
   <g id="text_44">
    <g clip-path="url(#p96066bb68a)">
     <!-- m3-243 -->
     <g style="fill:#ffffff;" transform="translate(404.289809 274.811953)scale(0.02 -0.02)">
      <use xlink:href="#DejaVuSans-109"/>
      <use x="97.412109" xlink:href="#DejaVuSans-51"/>
      <use x="161.035156" xlink:href="#DejaVuSans-45"/>
      <use x="197.119141" xlink:href="#DejaVuSans-50"/>
      <use x="260.742188" xlink:href="#DejaVuSans-52"/>
      <use x="324.365234" xlink:href="#DejaVuSans-51"/>
     </g>
    </g>
   </g>
   <g id="text_45">
    <g clip-path="url(#p96066bb68a)">
     <!-- m3-252 -->
     <g style="fill:#ffffff;" transform="translate(413.030972 255.095728)scale(0.02 -0.02)">
      <use xlink:href="#DejaVuSans-109"/>
      <use x="97.412109" xlink:href="#DejaVuSans-51"/>
      <use x="161.035156" xlink:href="#DejaVuSans-45"/>
      <use x="197.119141" xlink:href="#DejaVuSans-50"/>
      <use x="260.742188" xlink:href="#DejaVuSans-53"/>
      <use x="324.365234" xlink:href="#DejaVuSans-50"/>
     </g>
    </g>
   </g>
   <g id="text_46">
    <g clip-path="url(#p96066bb68a)">
     <!-- m3-110 -->
     <g style="fill:#ffffff;" transform="translate(431.568186 221.955309)scale(0.02 -0.02)">
      <use xlink:href="#DejaVuSans-109"/>
      <use x="97.412109" xlink:href="#DejaVuSans-51"/>
      <use x="161.035156" xlink:href="#DejaVuSans-45"/>
      <use x="197.119141" xlink:href="#DejaVuSans-49"/>
      <use x="260.742188" xlink:href="#DejaVuSans-49"/>
      <use x="324.365234" xlink:href="#DejaVuSans-48"/>
     </g>
    </g>
   </g>
   <g id="text_47">
    <g clip-path="url(#p96066bb68a)">
     <!-- m3-105 -->
     <g style="fill:#ffffff;" transform="translate(434.52513 198.482947)scale(0.02 -0.02)">
      <use xlink:href="#DejaVuSans-109"/>
      <use x="97.412109" xlink:href="#DejaVuSans-51"/>
      <use x="161.035156" xlink:href="#DejaVuSans-45"/>
      <use x="197.119141" xlink:href="#DejaVuSans-49"/>
      <use x="260.742188" xlink:href="#DejaVuSans-48"/>
      <use x="324.365234" xlink:href="#DejaVuSans-53"/>
     </g>
    </g>
   </g>
   <g id="text_48">
    <g clip-path="url(#p96066bb68a)">
     <!-- m3-80 -->
     <g style="fill:#ffffff;" transform="translate(420.067408 58.002284)scale(0.02 -0.02)">
      <use xlink:href="#DejaVuSans-109"/>
      <use x="97.412109" xlink:href="#DejaVuSans-51"/>
      <use x="161.035156" xlink:href="#DejaVuSans-45"/>
      <use x="197.119141" xlink:href="#DejaVuSans-56"/>
      <use x="260.742188" xlink:href="#DejaVuSans-48"/>
     </g>
    </g>
   </g>
   <g id="text_49">
    <g clip-path="url(#p96066bb68a)">
     <!-- m3-13 -->
     <g style="fill:#ffffff;" transform="translate(421.641995 18.746342)scale(0.02 -0.02)">
      <use xlink:href="#DejaVuSans-109"/>
      <use x="97.412109" xlink:href="#DejaVuSans-51"/>
      <use x="161.035156" xlink:href="#DejaVuSans-45"/>
      <use x="197.119141" xlink:href="#DejaVuSans-49"/>
      <use x="260.742188" xlink:href="#DejaVuSans-51"/>
     </g>
    </g>
   </g>
   <g id="text_50">
    <g clip-path="url(#p96066bb68a)">
     <!-- m3-81 -->
     <g style="fill:#ffffff;" transform="translate(387.762867 43.28293)scale(0.02 -0.02)">
      <use xlink:href="#DejaVuSans-109"/>
      <use x="97.412109" xlink:href="#DejaVuSans-51"/>
      <use x="161.035156" xlink:href="#DejaVuSans-45"/>
      <use x="197.119141" xlink:href="#DejaVuSans-56"/>
      <use x="260.742188" xlink:href="#DejaVuSans-49"/>
     </g>
    </g>
   </g>
  </g>
 </g>
 <defs>
  <clipPath id="p96066bb68a">
   <rect height="345.6" width="460.8" x="0" y="0"/>
  </clipPath>
 </defs>
</svg>
